<svg width="149" height="54" viewBox="0 0 149 54" fill="none" xmlns="http://www.w3.org/2000/svg">
<g id="Logo_clinic.svg" clip-path="url(#clip0_1_587)">
<path id="Vector" d="M73.548 0.0898438H74.0868C74.1042 12.8988 74.0868 25.7079 74.0868 38.5169C73.8956 38.5169 73.7218 38.5169 73.5306 38.5169C73.548 25.7079 73.548 12.8988 73.548 0.0898438Z" fill="white"/>
<path id="Vector_2" d="M2.42918 13.2115C3.55888 12.3425 5.07093 12.1166 6.44395 12.3773C7.71269 12.6206 8.84239 13.4201 9.52021 14.515C9.18999 14.7583 8.85977 14.9843 8.52955 15.2276C8.19933 14.654 7.73007 14.1326 7.13915 13.8372C6.23539 13.3505 5.15783 13.2984 4.20193 13.5939C3.07224 13.9588 2.16848 14.9669 1.87302 16.1313C1.68184 16.9134 1.68184 17.7477 1.8904 18.5298C2.20324 19.6769 3.107 20.6328 4.21931 20.9977C5.17521 21.2932 6.25277 21.2237 7.13915 20.7544C7.86911 20.3721 8.39051 19.7116 8.77287 18.999C9.08571 19.2424 9.41593 19.4857 9.72877 19.7116C9.52021 20.0766 9.29427 20.4416 8.99881 20.7544C7.17391 22.8226 3.55888 22.8226 1.75136 20.737C0.934499 19.868 0.53476 18.6514 0.5 17.4522V17.1046C0.51738 15.6099 1.21258 14.1153 2.42918 13.2115Z" fill="white"/>
<path id="Vector_3" d="M14.0738 14.5318C15.1688 14.3754 16.3158 14.4623 17.3239 14.9489C18.2972 15.4355 19.1314 16.3219 19.3921 17.4169C19.618 18.3728 19.5138 19.4156 19.0097 20.2672C18.4536 21.1883 17.5324 21.8488 16.507 22.1095C15.6033 22.3354 14.6474 22.3528 13.7436 22.1616C12.7356 21.9357 11.8144 21.3447 11.2061 20.4931C10.4588 19.4329 10.3545 17.9556 10.9107 16.7738C11.4842 15.5224 12.7529 14.723 14.0738 14.5318ZM14.1607 15.6093C13.257 15.7831 12.388 16.3567 11.9709 17.2083C11.5364 18.1468 11.6754 19.3634 12.388 20.1281C12.9267 20.7538 13.7262 21.084 14.5431 21.1536C15.6033 21.2578 16.7677 21.0145 17.5324 20.215C18.1755 19.572 18.4362 18.5813 18.2103 17.6949C18.0191 16.8607 17.3586 16.1655 16.5939 15.8353C15.8466 15.5051 14.9776 15.4703 14.1607 15.6093Z" fill="white"/>
<path id="Vector_4" d="M22.9724 14.5672C24.554 14.2717 26.2224 14.6541 27.5607 15.5405C27.3695 15.8707 27.1783 16.1835 26.9698 16.5137C25.8575 15.7664 24.4671 15.3319 23.1288 15.6274C22.6595 15.7316 22.1208 16.0966 22.1729 16.6528C22.1903 17.1742 22.7638 17.3654 23.1809 17.4175C24.4323 17.5913 25.7879 17.3306 26.935 18.0084C28.03 18.582 28.2559 20.2157 27.5086 21.1542C26.9698 21.8494 26.0834 22.197 25.2318 22.2665C23.6502 22.4055 22.0165 21.9884 20.6782 21.1194C20.8694 20.7892 21.0606 20.459 21.2518 20.1288C22.3815 20.8935 23.7545 21.3454 25.1275 21.1716C25.6489 21.102 26.2051 20.8935 26.5353 20.459C26.8655 20.0245 26.8307 19.3293 26.3962 18.9817C25.9444 18.6341 25.3708 18.582 24.832 18.5298C23.8066 18.4777 22.7464 18.4951 21.7905 18.0606C21.0258 17.6956 20.8694 16.6875 21.1127 15.9402C21.3908 15.1581 22.2077 14.7062 22.9724 14.5672Z" fill="white"/>
<path id="Vector_5" d="M61.6079 14.8281C62.6507 14.3936 63.8152 14.3763 64.9101 14.6022C65.8834 14.8108 66.7698 15.3843 67.3433 16.2011C67.0305 16.4097 66.735 16.6356 66.4222 16.8442C65.9703 16.2359 65.3099 15.8014 64.5799 15.645C63.5197 15.4191 62.3379 15.5233 61.4515 16.2011C60.8258 16.653 60.4087 17.383 60.374 18.1651C60.3044 18.9819 60.6347 19.8162 61.243 20.355C62.1467 21.1718 63.4676 21.363 64.6147 21.0675C65.4315 20.859 66.1267 20.3028 66.596 19.6076C66.9088 19.8162 67.2217 20.0421 67.5171 20.2507C67.0305 21.0328 66.3005 21.6932 65.4142 21.9887C64.4061 22.3363 63.2938 22.371 62.2684 22.1451C61.2603 21.9192 60.3392 21.2935 59.7483 20.4245C59.14 19.5207 59.0183 18.3563 59.2964 17.3135C59.644 16.1838 60.5478 15.28 61.6079 14.8281Z" fill="white"/>
<path id="Vector_6" d="M29.9763 14.653C30.2892 14.653 30.602 14.653 30.9148 14.653C31.9229 16.0782 32.8962 17.5381 33.9042 18.9632C34.8427 17.6076 35.7812 16.252 36.7197 14.8963C36.9283 14.4618 37.4671 14.7225 37.8321 14.6704C37.8321 17.1383 37.8321 19.6063 37.8321 22.0743C37.4497 22.0743 37.0673 22.0743 36.685 22.0743C36.685 20.3189 36.685 18.5461 36.685 16.7907C35.7638 18.1464 34.8253 19.5194 33.9042 20.875C32.9831 19.5194 32.0619 18.1464 31.1234 16.7907C31.1234 18.5461 31.1234 20.3015 31.1234 22.0743C30.741 22.0743 30.3587 22.0743 29.9763 22.0743C29.9763 19.5889 29.9763 17.121 29.9763 14.653Z" fill="white"/>
<path id="Vector_7" d="M40.3175 14.6533C42.5943 14.6533 44.8711 14.6533 47.1478 14.6533C47.1478 15.0183 47.1478 15.3832 47.1478 15.7482C45.2534 15.7482 43.359 15.7482 41.4646 15.7482C41.4646 16.3565 41.4646 16.9648 41.4646 17.5731C42.7159 17.5731 43.9499 17.5731 45.2013 17.5731C45.2013 17.9381 45.2013 18.2857 45.2013 18.6507C43.9499 18.6507 42.7159 18.6507 41.4646 18.6507C41.4646 19.4154 41.4646 20.1975 41.4646 20.9622C43.4633 20.9622 45.462 20.9622 47.4607 20.9622C47.4607 21.3272 47.4607 21.6748 47.4607 22.0398C45.0796 22.0398 42.6986 22.0398 40.3175 22.0398C40.3175 19.5892 40.3175 17.1212 40.3175 14.6533Z" fill="white"/>
<path id="Vector_8" d="M47.7385 14.6533C50.1717 14.6533 52.5875 14.6533 55.0207 14.6533C55.0207 15.0009 55.0207 15.3485 55.0207 15.6961C53.9953 15.6961 52.9699 15.6961 51.9619 15.6961C51.9619 17.8164 51.9619 19.9368 51.9619 22.0571C51.5795 22.0571 51.1971 22.0571 50.8148 22.0571C50.8148 19.9368 50.8148 17.8164 50.8148 15.6961C49.7894 15.6961 48.7639 15.6961 47.7559 15.6961C47.7385 15.3485 47.7385 15.0009 47.7385 14.6533Z" fill="white"/>
<path id="Vector_9" d="M56.1681 14.6367C56.5505 14.6367 56.9328 14.6367 57.3326 14.6367C57.3326 17.1046 57.3326 19.59 57.3326 22.0579C56.9502 22.0579 56.5678 22.0579 56.1681 22.0579C56.1681 19.59 56.1681 17.122 56.1681 14.6367Z" fill="white"/>
<path id="Vector_10" d="M84.9147 12.2561C86.896 11.9607 88.9294 12.5864 90.511 13.7856C90.2851 14.1332 90.0418 14.4634 89.7984 14.811C88.7556 13.9594 87.4521 13.3684 86.0965 13.3511C85.2796 13.3163 84.3759 13.4553 83.7502 14.0636C83.4026 14.3939 83.2809 14.9848 83.559 15.3845C83.8719 15.8538 84.4454 16.0276 84.9842 16.1492C86.3398 16.3926 87.765 16.2014 89.0685 16.7054C89.7637 16.9835 90.4067 17.4701 90.7543 18.1653C91.1715 19.0343 91.0672 20.1293 90.4936 20.894C89.9027 21.6761 88.999 22.1453 88.0431 22.3191C85.8358 22.7015 83.4895 22.128 81.7341 20.7202C81.9601 20.3726 82.2034 20.0076 82.4467 19.66C83.5938 20.5638 84.9668 21.2242 86.4267 21.2937C87.3826 21.3459 88.4254 21.1894 89.1554 20.529C89.6768 20.0771 89.9027 19.2603 89.5899 18.6346C89.277 18.0437 88.634 17.7308 87.9909 17.6092C86.6527 17.3832 85.2623 17.5049 83.9588 17.1051C83.281 16.8792 82.6379 16.4621 82.325 15.7843C82.0122 15.0369 82.1339 14.1158 82.6379 13.4901C83.2114 12.7775 84.0631 12.3952 84.9147 12.2561Z" fill="white"/>
<path id="Vector_11" d="M112.618 16.4447C113.296 15.3671 114.478 14.6719 115.712 14.4981C116.789 14.3417 117.919 14.3939 118.927 14.811C119.622 15.0891 120.231 15.5931 120.7 16.184C120.404 16.4099 120.092 16.6185 119.796 16.8444C119.327 16.2361 118.649 15.8016 117.902 15.6278C116.928 15.4193 115.868 15.4367 114.964 15.8712C114.182 16.2361 113.505 16.9487 113.331 17.8351C113.14 18.7389 113.435 19.7295 114.113 20.3378C114.982 21.1894 116.285 21.3806 117.432 21.2242C118.267 21.0852 119.136 20.7376 119.657 20.025C119.657 19.7643 119.657 19.4862 119.657 19.2255C119.031 19.2255 118.388 19.2255 117.763 19.2255C117.763 18.8605 117.763 18.4955 117.763 18.1306C118.788 18.1306 119.813 18.1306 120.839 18.1306C120.839 18.8431 120.839 19.5557 120.839 20.2683C120.856 20.5116 120.648 20.668 120.509 20.8418C119.796 21.6935 118.736 22.1975 117.658 22.3191C116.511 22.4582 115.295 22.3713 114.234 21.8499C113.261 21.3632 112.462 20.4942 112.184 19.4167C111.94 18.426 112.062 17.3137 112.618 16.4447Z" fill="white"/>
<path id="Vector_12" d="M122.959 14.6035C125.288 14.6035 127.617 14.6035 129.946 14.6035C129.946 14.9858 129.946 15.3508 129.946 15.7332C128.017 15.7332 126.07 15.7332 124.141 15.7332C124.141 16.3588 124.141 16.9671 124.141 17.5928C125.41 17.5928 126.679 17.5928 127.947 17.5928C127.947 17.9578 127.947 18.3228 127.947 18.6878C126.679 18.6878 125.41 18.6878 124.141 18.6878C124.141 19.4872 124.141 20.2693 124.141 21.0688C126.192 21.0688 128.225 21.0688 130.276 21.0688C130.276 21.4338 130.276 21.7988 130.276 22.1638C127.843 22.1638 125.41 22.1638 122.977 22.1638C122.959 19.6437 122.942 17.1236 122.959 14.6035Z" fill="white"/>
<path id="Vector_13" d="M140.322 14.6035C140.826 14.6035 141.33 14.6035 141.834 14.6035C142.651 15.4899 143.468 16.3936 144.302 17.28C145.101 16.3936 145.918 15.5072 146.718 14.6209C147.257 14.6035 147.778 14.6209 148.317 14.6035C147.17 15.8374 146.023 17.0714 144.893 18.3054C144.893 19.5915 144.893 20.8776 144.893 22.1811C144.51 22.1811 144.128 22.1811 143.746 22.1811C143.746 20.895 143.746 19.6089 143.746 18.3402C142.581 17.0714 141.452 15.8374 140.322 14.6035Z" fill="white"/>
<path id="Vector_14" d="M93.1526 14.6201C93.535 14.6201 93.9347 14.6201 94.3345 14.6201C94.3345 16.2364 94.3345 17.8701 94.3345 19.4865C94.3345 19.9383 94.404 20.425 94.6821 20.7726C94.9428 21.068 95.3599 21.1549 95.7249 21.2245C96.4896 21.3287 97.2543 21.3287 98.019 21.2071C98.384 21.1376 98.7837 21.0333 99.0097 20.7378C99.2704 20.3902 99.3225 19.921 99.3399 19.4865C99.3399 17.8701 99.3399 16.2364 99.3399 14.6201C99.7223 14.6201 100.122 14.6201 100.504 14.6201C100.504 16.3928 100.504 18.1482 100.504 19.921C100.504 20.6509 100.209 21.4504 99.5485 21.8328C98.6621 22.3542 97.5845 22.3889 96.5939 22.3889C95.7075 22.3542 94.7516 22.302 93.9869 21.7806C93.3612 21.3461 93.1353 20.5466 93.1353 19.8167C93.1526 18.0961 93.1526 16.3581 93.1526 14.6201Z" fill="white"/>
<path id="Vector_15" d="M103.059 14.6202C104.728 14.6202 106.379 14.6202 108.047 14.6202C108.69 14.6028 109.368 14.6897 109.889 15.0894C110.897 15.8542 110.863 17.5922 109.889 18.3743C109.577 18.635 109.194 18.7566 108.812 18.8609C109.507 19.9558 110.185 21.0682 110.88 22.1631C110.446 22.1631 110.028 22.1631 109.594 22.1631C108.881 21.0682 108.186 19.9732 107.491 18.8783C106.413 18.8783 105.336 18.8783 104.258 18.8783C104.258 19.9732 104.258 21.0682 104.258 22.1631C103.859 22.1631 103.476 22.1631 103.076 22.1631C103.059 19.643 103.059 17.1403 103.059 14.6202ZM104.241 15.7151C104.241 16.3929 104.241 17.0708 104.241 17.7486C105.544 17.7486 106.848 17.7486 108.151 17.7486C108.534 17.7486 108.951 17.6964 109.212 17.3836C109.472 17.036 109.472 16.532 109.264 16.167C109.02 15.7846 108.551 15.7325 108.151 15.7325C106.848 15.7325 105.544 15.7151 104.241 15.7151Z" fill="white"/>
<path id="Vector_16" d="M131.927 14.6201C133.665 14.6201 135.403 14.6201 137.141 14.6201C137.784 14.6201 138.462 14.7765 138.931 15.2458C139.783 16.0974 139.644 17.7137 138.671 18.4263C138.375 18.6522 138.01 18.7739 137.663 18.8608C138.358 19.9557 139.036 21.068 139.731 22.163C139.296 22.163 138.879 22.163 138.445 22.163C137.732 21.068 137.037 19.9731 136.342 18.8782C135.264 18.8782 134.187 18.8782 133.109 18.8782C133.109 19.9731 133.109 21.068 133.109 22.163C132.709 22.163 132.327 22.163 131.927 22.163C131.927 19.6429 131.927 17.1402 131.927 14.6201ZM133.109 15.715C133.109 16.3928 133.109 17.0706 133.109 17.7485C134.447 17.7485 135.786 17.7485 137.141 17.7485C137.506 17.7485 137.923 17.6442 138.132 17.314C138.341 16.9664 138.341 16.5145 138.149 16.1495C137.906 15.7672 137.437 15.715 137.037 15.715C135.716 15.7324 134.413 15.715 133.109 15.715Z" fill="white"/>
<path id="Vector_17" d="M11.0494 28.21C11.7446 28.21 12.4398 28.21 13.1524 28.21C13.7781 28.21 14.4385 28.4186 14.8904 28.8878C15.5856 29.5656 15.7247 30.6953 15.3771 31.5991C15.0816 32.3812 14.2995 32.9026 13.4826 32.9721C12.6832 33.0243 11.8663 32.9721 11.0668 32.9895C11.0494 31.4079 11.0494 29.809 11.0494 28.21ZM11.6404 28.7835C11.6404 30.0001 11.6404 31.2167 11.6404 32.4333C12.4572 32.3812 13.3436 32.6071 14.1083 32.19C15.238 31.547 15.2033 29.583 14.0388 28.9921C13.2915 28.6271 12.4398 28.8357 11.6404 28.7835Z" fill="white"/>
<path id="Vector_18" d="M23.8588 28.2109C24.5713 28.2109 25.2839 28.2109 25.9965 28.2109C26.6222 28.2283 27.2826 28.4368 27.7171 28.9235C28.4123 29.6534 28.534 30.8179 28.1342 31.7216C27.804 32.469 27.0219 32.9382 26.2224 32.973C25.4403 33.0078 24.6409 32.973 23.8588 32.9904C23.8588 31.4088 23.8588 29.8099 23.8588 28.2109ZM24.4497 28.7844C24.4497 30.001 24.4497 31.2176 24.4497 32.4342C25.0058 32.4342 25.562 32.4516 26.1182 32.4168C26.6569 32.3821 27.2131 32.104 27.4912 31.6174C27.9604 30.7831 27.7866 29.5665 26.9524 29.0451C26.1877 28.6106 25.2839 28.8366 24.4497 28.7844Z" fill="white"/>
<path id="Vector_19" d="M38.649 29.2881C38.8402 29.2881 39.0314 29.2881 39.2226 29.2881C39.2226 30.5221 39.2226 31.7735 39.2226 33.0074C39.0314 33.0074 38.8402 33.0074 38.649 33.0074C38.649 31.7735 38.649 30.5221 38.649 29.2881Z" fill="white"/>
<path id="Vector_20" d="M45.7226 29.3058C46.2961 29.1494 46.9392 29.1494 47.5127 29.3579C48.2253 29.6186 48.7988 30.3138 48.7815 31.0959C48.8336 31.8954 48.2948 32.6427 47.5822 32.9208C46.6437 33.2858 45.4445 33.1641 44.7493 32.3647C44.2974 31.8606 44.1931 31.0959 44.4191 30.4702C44.645 29.9141 45.149 29.4796 45.7226 29.3058ZM45.8269 29.8619C45.1143 30.1053 44.6798 30.9743 45.01 31.6695C45.375 32.5211 46.4873 32.7296 47.2868 32.4168C47.982 32.1735 48.3991 31.3219 48.0863 30.6267C47.7213 29.775 46.6263 29.5665 45.8269 29.8619Z" fill="white"/>
<path id="Vector_21" d="M16.4895 29.3061C17.3933 29.3061 18.297 29.2887 19.2008 29.3234C19.7396 29.3234 20.261 29.7753 20.1914 30.3489C20.2262 30.8703 19.7917 31.3048 19.3051 31.3917C19.6353 31.9304 19.9829 32.4518 20.3131 32.9906C20.1045 32.9906 19.8786 32.9906 19.67 32.9906C19.3224 32.4518 18.9922 31.9304 18.6446 31.3917C18.1232 31.3917 17.5844 31.3917 17.063 31.3917C17.063 31.9304 17.063 32.4518 17.063 32.9906C16.8719 32.9906 16.6807 32.9906 16.4895 32.9906C16.4895 31.774 16.4895 30.54 16.4895 29.3061ZM17.063 29.8448C17.063 30.1751 17.063 30.5053 17.063 30.8355C17.7756 30.8181 18.4882 30.8529 19.1834 30.8181C19.7048 30.8007 19.7396 29.9317 19.2182 29.8796C18.5056 29.8101 17.793 29.8622 17.063 29.8448Z" fill="white"/>
<path id="Vector_22" d="M29.2985 31.9996C29.2811 31.0959 29.2985 30.2095 29.2811 29.3057C29.4723 29.3057 29.6635 29.3057 29.8547 29.3057C29.8547 30.1226 29.8373 30.9394 29.8547 31.7737C29.8547 32.0518 29.9589 32.382 30.237 32.4863C30.741 32.6427 31.2972 32.6253 31.8012 32.521C32.0967 32.4689 32.2705 32.1908 32.2705 31.8953C32.2879 31.0437 32.2705 30.1747 32.2879 29.3231C32.479 29.3231 32.6702 29.3231 32.8614 29.3231C32.8614 30.2095 32.8614 31.1132 32.8614 31.9996C32.8614 32.4515 32.5659 32.8686 32.1314 32.9903C31.4884 33.1815 30.7758 33.1641 30.1327 33.0424C29.6809 32.9208 29.2985 32.4863 29.2985 31.9996Z" fill="white"/>
<path id="Vector_23" d="M34.1476 32.9909C34.1476 31.7569 34.1476 30.5229 34.1476 29.2889C35.0513 29.3585 36.0246 29.1151 36.8589 29.5323C37.8321 30.0363 38.0407 31.4788 37.3803 32.313C37.0327 32.7475 36.4765 32.9561 35.9377 32.9735C35.3468 33.0082 34.7385 32.9909 34.1476 32.9909ZM34.7211 29.8451C34.7211 30.7141 34.7211 31.5831 34.7211 32.4521C35.3294 32.4173 35.9899 32.5737 36.5634 32.2783C37.3281 31.8612 37.3629 30.5924 36.6329 30.1058C36.0768 29.6887 35.3642 29.8972 34.7211 29.8451Z" fill="white"/>
<path id="Vector_24" d="M40.4913 29.3057C40.6825 29.3057 40.8737 29.3057 41.0649 29.3057C41.0649 29.8445 41.0649 30.3833 41.0649 30.9394C41.7079 30.4007 42.351 29.8619 42.9767 29.3057C43.2374 29.3057 43.4981 29.3057 43.7588 29.3057C43.2547 29.7576 42.7333 30.1921 42.2293 30.6266C42.8202 31.4261 43.3938 32.2082 43.9847 33.0077C43.7588 33.0077 43.5502 33.0077 43.3243 33.0077C42.8202 32.3298 42.3162 31.652 41.8122 30.9742C41.5689 31.1828 41.3256 31.3913 41.0649 31.6173C41.0649 32.0865 41.0649 32.5384 41.0649 33.0077C40.8737 33.0077 40.6825 33.0077 40.4913 33.0077C40.4913 31.7737 40.4913 30.5397 40.4913 29.3057Z" fill="white"/>
<path id="Vector_25" d="M49.1641 29.3057C49.3726 29.3057 49.5812 29.3057 49.7897 29.3057C50.259 30.2095 50.6935 31.1306 51.1628 32.0518C51.6146 31.148 52.0491 30.2269 52.501 29.3057C52.7096 29.3057 52.9355 29.3057 53.1441 29.3057C52.5358 30.5397 51.9275 31.7737 51.3192 33.0077C51.2497 33.0077 51.0932 33.0077 51.0063 33.0077C50.3807 31.7737 49.7724 30.5397 49.1641 29.3057Z" fill="white"/>
<path id="Vector_26" d="M52.9006 32.9901C53.5089 31.7561 54.1346 30.5221 54.7429 29.2881C54.8298 29.2881 55.021 29.2881 55.1253 29.2881C55.7509 30.5221 56.3766 31.7561 57.0023 32.9901C56.7937 32.9901 56.5852 32.9901 56.3592 32.9901C56.2028 32.6772 56.0464 32.3644 55.89 32.0515C55.2469 32.0515 54.6213 32.0515 53.9782 32.0515C53.8218 32.3644 53.6654 32.6772 53.5089 32.9901C53.3004 32.9901 53.1092 32.9901 52.9006 32.9901ZM54.2389 31.5649C54.7082 31.5649 55.16 31.5649 55.6293 31.5649C55.4034 31.0956 55.1774 30.6438 54.9341 30.1745C54.7082 30.6438 54.4822 31.0956 54.2389 31.5649Z" fill="white"/>
<path id="Vector_27" d="M21.5124 32.3646C21.7731 32.1908 22.1207 32.4341 22.0686 32.7469C22.0859 33.0076 21.8252 33.1988 21.5993 33.0945C21.2865 33.0076 21.2691 32.5384 21.5124 32.3646Z" fill="white"/>
<path id="Vector_28" d="M95.5162 28.124C96.2288 28.124 96.9587 28.1414 97.6713 28.1414C98.3144 28.1587 98.9922 28.4021 99.4267 28.9061C100.035 29.5839 100.139 30.6267 99.8438 31.4783C99.5657 32.2604 98.801 32.8166 98.0015 32.8861C97.1673 32.9556 96.3331 32.8861 95.4814 32.9035C95.5162 31.3045 95.4988 29.7229 95.5162 28.124ZM96.1071 28.6801C96.1245 29.8967 96.0897 31.1133 96.0897 32.3299C96.9066 32.2952 97.793 32.5037 98.5403 32.104C99.67 31.4783 99.6526 29.5318 98.5229 28.9235C97.7756 28.5411 96.9066 28.7497 96.1071 28.6801Z" fill="white"/>
<path id="Vector_29" d="M108.325 28.1938C109.316 28.1938 110.289 28.1764 111.28 28.2111C111.68 28.2285 112.131 28.3502 112.357 28.7152C112.635 29.2018 112.583 29.9144 112.131 30.2794C112.966 30.7312 113.105 32.0347 112.392 32.643C111.836 33.0949 111.089 32.9906 110.446 32.9906C109.733 32.9733 109.02 32.9906 108.308 32.9906C108.308 31.3743 108.325 29.7753 108.325 28.1938ZM108.916 28.7499C108.916 29.1844 108.916 29.6189 108.916 30.0534C109.594 30.0882 110.289 30.0708 110.967 30.0708C111.21 30.0708 111.471 30.0882 111.68 29.9491C112.097 29.6537 111.958 28.8021 111.401 28.7673C110.567 28.7325 109.75 28.7673 108.916 28.7499ZM108.916 30.627C108.899 31.2179 108.916 31.8088 108.899 32.4171C109.768 32.3997 110.637 32.4519 111.506 32.4171C112.392 32.365 112.462 30.8529 111.61 30.6791C110.724 30.5922 109.82 30.6791 108.916 30.627Z" fill="white"/>
<path id="Vector_30" d="M100.939 29.2373C101.877 29.2894 102.798 29.2199 103.737 29.272C104.258 29.3068 104.71 29.7934 104.641 30.3322C104.641 30.8536 104.224 31.236 103.754 31.3403C104.085 31.879 104.415 32.4004 104.745 32.9392C104.536 32.9392 104.31 32.9392 104.102 32.9392C103.754 32.4004 103.424 31.8616 103.077 31.3229C102.555 31.3229 102.034 31.3229 101.495 31.3229C101.495 31.8616 101.495 32.383 101.495 32.9218C101.304 32.9218 101.113 32.9218 100.921 32.9218C100.921 31.7052 100.939 30.4713 100.939 29.2373ZM101.53 29.7761C101.53 30.1063 101.53 30.4365 101.512 30.7667C102.242 30.7841 102.972 30.8188 103.702 30.7493C104.154 30.6798 104.154 29.8977 103.702 29.8282C102.99 29.7413 102.26 29.8282 101.53 29.7761Z" fill="white"/>
<path id="Vector_31" d="M113.922 29.2881C115.069 29.3229 116.216 29.2707 117.363 29.3229C117.345 29.4967 117.345 29.6879 117.345 29.8617C116.389 29.8617 115.416 29.8443 114.46 29.8443C114.443 30.1571 114.512 30.4526 114.53 30.748C115.155 30.748 115.764 30.7654 116.389 30.7654C116.389 30.9392 116.389 31.1304 116.389 31.3042C115.764 31.2868 115.138 31.3042 114.512 31.2868C114.512 31.6692 114.512 32.0515 114.512 32.4339C115.503 32.4339 116.511 32.4513 117.519 32.4513C117.519 32.6251 117.519 32.8163 117.519 32.9901C116.32 32.9901 115.138 32.9727 113.939 32.9727C113.904 31.7561 113.939 30.5221 113.922 29.2881Z" fill="white"/>
<path id="Vector_32" d="M118.319 29.3242C119.066 29.3242 119.831 29.3242 120.578 29.3242C120.926 29.3416 121.308 29.3937 121.534 29.7065C121.777 30.0889 121.725 30.6451 121.377 30.9405C121.795 31.2012 122.055 31.7052 121.916 32.1919C121.829 32.6611 121.377 32.974 120.908 33.0087C120.039 33.0435 119.17 33.0087 118.301 33.0087C118.301 31.7748 118.319 30.5582 118.319 29.3242ZM118.909 29.8803C118.909 30.1584 118.892 30.4365 118.892 30.732C119.535 30.7146 120.178 30.7667 120.804 30.7146C121.186 30.6451 121.186 30.002 120.804 29.9325C120.161 29.8282 119.535 29.8977 118.909 29.8803ZM118.892 31.2707C118.892 31.6705 118.892 32.0702 118.892 32.47C119.466 32.47 120.022 32.47 120.595 32.47C120.769 32.47 120.943 32.4873 121.099 32.3831C121.516 32.1224 121.412 31.3055 120.873 31.2881C120.213 31.2707 119.553 31.2881 118.892 31.2707Z" fill="white"/>
<path id="Vector_33" d="M122.16 29.3242C122.42 29.3242 122.664 29.3242 122.924 29.3416C123.324 29.7761 123.724 30.2106 124.106 30.6451C124.523 30.2279 124.888 29.7413 125.323 29.3416C125.566 29.3242 125.809 29.3416 126.07 29.3589C125.514 29.9499 124.958 30.5582 124.384 31.1491C124.384 31.7748 124.367 32.4178 124.367 33.0435C124.176 33.0435 123.984 33.0435 123.793 33.0435C123.793 32.4178 123.793 31.7748 123.793 31.1491C123.272 30.5408 122.716 29.9325 122.16 29.3242Z" fill="white"/>
<path id="Vector_34" d="M126.696 29.375C126.887 29.375 127.078 29.375 127.269 29.375C127.269 29.9137 127.269 30.4525 127.252 30.9913C127.895 30.4699 128.521 29.9137 129.164 29.3923C129.425 29.3576 129.685 29.3923 129.946 29.3923C129.425 29.8268 128.921 30.2613 128.417 30.6958C128.99 31.4953 129.581 32.2774 130.155 33.0769C129.929 33.0769 129.703 33.0769 129.477 33.0595C128.99 32.3817 128.486 31.7039 127.982 31.0434C127.739 31.252 127.478 31.4606 127.235 31.6865C127.235 32.1558 127.235 32.6076 127.235 33.0769C127.043 33.0769 126.852 33.0769 126.661 33.0769C126.679 31.8255 126.696 30.5916 126.696 29.375Z" fill="white"/>
<path id="Vector_35" d="M130.832 29.3584C131.023 29.3584 131.214 29.3757 131.406 29.3757C131.406 29.845 131.406 30.3316 131.406 30.8009C132.257 30.8009 133.092 30.8183 133.943 30.8183C133.943 30.349 133.943 29.8624 133.943 29.3757C134.134 29.3757 134.325 29.3931 134.517 29.3931C134.517 30.6271 134.499 31.8611 134.499 33.095C134.308 33.095 134.1 33.0951 133.908 33.0777C133.926 32.5041 133.908 31.9306 133.926 31.3744C133.074 31.3744 132.223 31.3744 131.371 31.3744C131.371 31.948 131.371 32.5215 131.371 33.095C131.18 33.095 130.989 33.095 130.797 33.095C130.815 31.8437 130.832 30.6097 130.832 29.3584Z" fill="white"/>
<path id="Vector_36" d="M105.927 32.3475C106.118 32.1911 106.431 32.2953 106.5 32.5386C106.587 32.7993 106.413 33.1296 106.118 33.0774C105.753 33.06 105.683 32.556 105.927 32.3475Z" fill="white"/>
<path id="Vector_37" d="M62.7896 48.5631C63.8498 47.5725 65.7616 47.8158 66.5263 49.0671C66.3525 49.1888 66.1961 49.3105 66.0223 49.4321C65.5183 48.5284 64.2322 48.2329 63.3979 48.8412C62.4247 49.5016 62.3378 51.1006 63.1894 51.9174C63.7977 52.5084 64.8057 52.5605 65.4835 52.0739C65.7616 51.8827 65.9528 51.5872 66.144 51.3092C66.3004 51.4308 66.4568 51.5525 66.6306 51.6741C66.2309 52.4388 65.4488 52.8907 64.6319 53.0298H64.2843C63.4153 52.8907 62.5463 52.4041 62.2161 51.5351C61.799 50.5444 61.9902 49.2757 62.7896 48.5631Z" fill="white"/>
<path id="Vector_38" d="M81.8729 48.5117C82.9505 47.5905 84.7927 47.8512 85.5401 49.0678C85.3663 49.1895 85.2098 49.3112 85.036 49.4328C84.532 48.5117 83.2459 48.251 82.4117 48.8419C81.4384 49.5197 81.3515 51.1187 82.2205 51.9182C82.8288 52.5091 83.8368 52.5612 84.5146 52.0746C84.7927 51.8834 84.9839 51.5879 85.1577 51.3099C85.3141 51.4315 85.4705 51.5532 85.6443 51.6748C85.2446 52.4396 84.4625 52.8741 83.6457 53.0131H83.2981C82.5333 52.8741 81.7512 52.5091 81.3515 51.8139C80.7606 50.7885 80.9344 49.2938 81.8729 48.5117Z" fill="white"/>
<path id="Vector_39" d="M67.6561 48.0762C67.8472 48.0762 68.0558 48.0762 68.247 48.0762C68.247 49.484 68.247 50.8918 68.247 52.2996C69.2724 52.2996 70.2978 52.2996 71.3058 52.2996C71.3058 52.4907 71.3058 52.6645 71.3058 52.8557C70.0892 52.8557 68.8726 52.8557 67.6387 52.8557C67.6561 51.2568 67.6561 49.6578 67.6561 48.0762Z" fill="white"/>
<path id="Vector_40" d="M72.0186 48.0762C72.2271 48.0762 72.4183 48.0762 72.6269 48.0762C72.6269 49.6752 72.6269 51.2741 72.6269 52.8731C72.4183 52.8731 72.2271 52.8731 72.0186 52.8731C72.0186 51.2741 72.0186 49.6578 72.0186 48.0762Z" fill="white"/>
<path id="Vector_41" d="M74.0346 48.0762C74.1215 48.0762 74.2779 48.0762 74.3474 48.0762C75.3728 49.2581 76.3809 50.4399 77.3889 51.6217C77.3889 50.4399 77.3889 49.2581 77.3889 48.0762C77.5801 48.0762 77.7887 48.0762 77.9798 48.0762C77.9798 49.6752 77.9798 51.2568 77.9798 52.8557C77.9103 52.8557 77.7539 52.8557 77.667 52.8557C76.6416 51.6739 75.6335 50.492 74.6081 49.3102C74.6081 50.492 74.6081 51.6739 74.6081 52.8557C74.417 52.8557 74.2084 52.8557 74.0172 52.8557C74.0346 51.2568 74.0346 49.6578 74.0346 48.0762Z" fill="white"/>
<path id="Vector_42" d="M79.3877 48.0762C79.5789 48.0762 79.7874 48.0762 79.9786 48.0762C79.9786 49.6752 79.9786 51.2741 79.9786 52.8731C79.7874 52.8731 79.5789 52.8731 79.3877 52.8731C79.3877 51.2741 79.3877 49.6752 79.3877 48.0762Z" fill="white"/>
</g>
<defs>
<clipPath id="clip0_1_587">
<rect width="148" height="53" fill="white" transform="translate(0.5 0.0898438)"/>
</clipPath>
</defs>
</svg>
