<svg width="161" height="24" viewBox="0 0 161 24" fill="none" xmlns="http://www.w3.org/2000/svg">
<g id="Logo.svg" clip-path="url(#clip0_1_33)">
<path id="Vector" d="M25.7497 0.683504C23.7934 1.06797 22.0746 1.96505 20.612 3.37474C21.4896 4.29013 22.1296 5.37029 22.4952 6.61522C22.7146 7.20106 22.8609 7.82352 22.934 8.46429C22.9889 9.06845 23.0255 9.70922 23.0255 10.35C22.9523 13.9933 21.5993 16.9774 18.9482 19.3391C16.3885 21.7374 13.4448 22.9458 10.1172 22.9823C8.96533 22.9823 8.01458 22.9274 7.28323 22.7992C6.57017 22.7077 5.89368 22.5795 5.27203 22.4331C4.7418 22.5246 4.24815 22.5979 3.79105 22.6528C3.33396 22.7443 2.71232 22.7992 1.94441 22.7992C0.993662 22.7992 0.5 22.5979 0.5 22.1768C0.518284 21.7374 0.883956 21.536 1.59701 21.5543C2.05411 21.5543 2.54777 21.6093 3.04142 21.7191C3.55337 21.829 4.28471 21.9754 5.23546 22.1584C6.69816 21.7008 7.99629 20.7304 9.16644 19.2659C10.3366 17.7646 11.4519 16.0437 12.494 14.103C13.5545 12.1441 14.6699 10.2035 15.8582 8.26291C17.0284 6.3406 18.3814 4.6929 19.9172 3.33812C19.0944 2.66074 18.1803 2.16644 17.2112 1.8552C16.2422 1.58058 15.328 1.43412 14.4687 1.43412C11.2507 1.47074 8.43509 2.51428 6.02166 4.56475C3.5168 6.61522 2.23695 9.26983 2.1821 12.5469C2.16381 13.8467 2.43807 14.9269 2.98658 15.824C3.27911 16.2451 3.66307 16.5746 4.12017 16.8493C4.57726 17.1238 5.14404 17.2703 5.83882 17.2703C7.61233 17.252 9.03845 16.4464 10.0989 14.872C11.1593 13.3342 11.6896 11.4851 11.7079 9.32476V8.29953H12.0552V9.1783C12.037 11.6864 11.4153 13.7186 10.2086 15.2931C9.00189 16.9042 7.39293 17.728 5.4183 17.7463C3.97389 17.728 2.87687 17.1971 2.14552 16.1718C1.41418 15.1649 1.0668 13.9383 1.0668 12.492C1.10337 9.87399 2.38322 7.34752 4.90636 4.94921C7.39293 2.45935 10.556 1.17781 14.4139 1.10458C16.681 1.12289 18.619 1.78197 20.2463 3.10012C21.8553 1.74535 23.6836 0.88489 25.6948 0.500427L25.7497 0.683504ZM9.62353 22.6162C11.653 22.5979 13.4265 22.1402 14.9441 21.2431C16.4433 20.3461 17.6866 19.1926 18.674 17.7646C19.6979 16.3366 20.4474 14.7805 20.9411 13.1144C21.4165 11.4485 21.6541 9.80076 21.6541 8.20799C21.6541 7.38413 21.5627 6.5786 21.3617 5.79136C21.1422 4.98582 20.7766 4.32675 20.3012 3.79582C19.1676 5.18721 18.1071 6.79829 17.1381 8.64737C16.1507 10.4782 15.1635 12.3089 14.1396 14.158C13.1157 15.9888 11.9456 17.6182 10.6108 19.0462C9.23958 20.5107 7.57577 21.5909 5.63771 22.2866V22.3416C6.78957 22.5246 8.12427 22.6162 9.62353 22.6162Z" fill="#DDDDDD"/>
<path id="Vector_2" d="M29.9732 12.217L26.2981 17.7276L26.353 17.7825C27.6877 16.0983 29.5343 14.3773 31.8564 12.6015C31.9478 12.4 32.0576 12.2352 32.1855 12.1071C32.3135 12.0156 32.5329 11.9607 32.8437 11.9607C33.2277 11.9607 33.5934 11.9789 33.9224 12.0156C33.5934 12.3634 33.2825 12.7662 33.0083 13.2422C32.6791 13.7182 32.5146 14.2674 32.5146 14.8716C32.5512 15.8419 32.9351 16.3362 33.6664 16.3362C34.2515 16.3179 34.8183 16.0983 35.3486 15.7138C35.8422 15.3293 36.2811 14.9631 36.6467 14.597L36.8112 14.7251C36.409 15.1462 35.9337 15.549 35.3852 15.9701C34.8001 16.4277 34.1418 16.6658 33.4105 16.684C32.0758 16.6658 31.3993 15.9335 31.3627 14.4688C31.3627 13.9928 31.4724 13.5717 31.6736 13.1872L31.6187 13.1324C30.028 14.2674 28.1265 16.0799 25.9508 18.5332C25.0914 19.5034 24.3053 20.8216 23.5922 22.4693H21.6541C23.7568 19.0641 25.9325 15.6405 28.1997 12.1986H29.9732V12.217Z" fill="#DDDDDD"/>
<path id="Vector_3" d="M32.606 20.2724C33.2825 20.3273 33.6299 20.6935 33.6665 21.3708C33.6665 21.6638 33.5751 21.9201 33.3739 22.1215C33.1729 22.3594 32.9169 22.4876 32.606 22.4876C32.3136 22.4876 32.0759 22.3594 31.893 22.1215C31.6553 21.9201 31.5457 21.6821 31.5457 21.3708C31.5457 21.0413 31.6553 20.785 31.893 20.5653C32.0759 20.3639 32.3136 20.2724 32.606 20.2724Z" fill="#DDDDDD"/>
<path id="Vector_4" d="M73.2688 0.683078C71.3125 1.06754 69.5937 1.96462 68.1311 3.37431C69.0087 4.28971 69.6487 5.36986 70.0326 6.61479C70.252 7.20063 70.3982 7.82309 70.4714 8.46387C70.5262 9.06802 70.5628 9.70879 70.5628 10.3496C70.4896 13.9928 69.1367 16.977 66.4855 19.3386C63.9258 21.737 60.9821 22.9453 57.6545 22.9819C56.5027 22.9819 55.552 22.927 54.8206 22.7988C54.1075 22.7073 53.431 22.5791 52.8095 22.4327C52.2792 22.5242 51.7856 22.5975 51.3285 22.6524C50.8713 22.7439 50.2497 22.7988 49.4818 22.7988C48.531 22.7988 48.0374 22.5975 48.0374 22.1764C48.0557 21.737 48.4214 21.5356 49.1344 21.5539C49.5915 21.5539 50.0669 21.6089 50.5788 21.7186C51.0907 21.8285 51.8221 21.975 52.7729 22.158C54.2355 21.7004 55.5336 20.73 56.7038 19.2655C57.8739 17.7642 58.9893 16.0433 60.0314 14.1026C61.0919 12.1437 62.2072 10.2031 63.3956 8.26249C64.5657 6.34017 65.9188 4.69248 67.4546 3.3377C66.6318 2.66031 65.7176 2.16601 64.7486 1.85478C63.7796 1.58015 62.8655 1.4337 62.006 1.4337C58.7882 1.47031 55.9725 2.51385 53.559 4.56432C51.0542 6.61479 49.7743 9.2694 49.7195 12.5465C49.7012 13.8463 49.9755 14.9265 50.524 15.8236C50.8165 16.2447 51.2005 16.5742 51.6575 16.8488C52.1146 17.1234 52.6997 17.2698 53.3762 17.2698C55.1497 17.2516 56.5758 16.446 57.6363 14.8716C58.6968 13.3337 59.227 11.4847 59.2453 9.32433V8.2991H59.5927V9.17787C59.5743 11.686 58.9527 13.7182 57.7459 15.2927C56.5393 16.9037 54.9303 17.7276 52.9557 17.7458C51.5113 17.7276 50.4142 17.1967 49.6829 16.1714C48.9516 15.1645 48.6042 13.9378 48.6042 12.4916C48.6408 9.87356 49.9206 7.34709 52.4437 4.94878C54.9303 2.45893 58.0934 1.17739 61.9512 1.10416C64.2184 1.12246 66.1565 1.78154 67.7837 3.0997C69.3927 1.74493 71.2211 0.884463 73.2322 0.5L73.2688 0.683078ZM57.1426 22.6158C59.1721 22.5975 60.9456 22.1398 62.4632 21.2426C63.9624 20.3456 65.2057 19.1922 66.1931 17.7642C67.2169 16.3362 67.9665 14.7801 68.4419 13.114C68.9173 11.448 69.155 9.80033 69.155 8.20756C69.155 7.38372 69.0636 6.57817 68.8624 5.79094C68.643 4.98539 68.2774 4.32632 67.8019 3.79539C66.6684 5.18678 65.608 6.79786 64.6389 8.64694C63.6516 10.4777 62.6643 12.3085 61.6404 14.1575C60.6165 15.9884 59.4463 17.6177 58.1117 19.0457C56.7404 20.5103 55.0766 21.5905 53.1385 22.2862V22.3412C54.2904 22.5242 55.6251 22.6158 57.1426 22.6158Z" fill="#DDDDDD"/>
<path id="Vector_5" d="M77.7665 12.217C76.1941 14.3589 74.8595 16.2447 73.7258 17.8375C72.574 19.4485 71.989 20.6019 71.9706 21.3159C71.989 21.9383 72.2632 22.2496 72.8117 22.2496C73.3785 22.2496 74.0184 21.9933 74.6949 21.4623C75.3714 20.9681 76.0296 20.3822 76.6878 19.6865C78.0774 18.1669 79.0098 17.0136 79.5035 16.208L82.045 12.217H84.0378C81.9718 15.073 80.5091 17.1783 79.6497 18.5514C78.7904 19.9245 78.3516 20.8948 78.3699 21.4989C78.3699 21.737 78.443 21.9383 78.5894 22.1031C78.7356 22.2862 78.9184 22.3778 79.1378 22.3778C79.4669 22.3778 79.8143 22.2679 80.1617 22.0665C80.5091 21.9018 80.8748 21.6821 81.2587 21.3892C82.0632 20.8033 82.8677 20.0709 83.6538 19.2105C85.3542 17.2882 86.561 15.7503 87.3289 14.597L87.6031 14.7068C86.8352 15.8968 85.6102 17.4713 83.8916 19.4485C83.0688 20.3456 82.2278 21.0962 81.3867 21.7186C80.5456 22.3778 79.7412 22.7073 78.9916 22.7256C78.4796 22.7073 78.0591 22.5425 77.7299 22.2679C77.4009 21.975 77.2364 21.5539 77.2364 21.0413C77.2364 20.6385 77.3095 20.2541 77.4375 19.8696C77.5289 19.5034 77.6203 19.2837 77.6935 19.1922L77.6385 19.1373C76.8341 20.1076 75.9747 20.9498 75.0788 21.6455C74.1647 22.3594 73.2688 22.7256 72.3546 22.7439C71.2027 22.689 70.6176 22.1946 70.6176 21.2793C70.6359 20.309 71.1296 19.1189 72.0986 17.7276C73.0311 16.3362 74.2927 14.5055 75.8833 12.2536H77.7665V12.217Z" fill="#DDDDDD"/>
<path id="Vector_6" d="M103.967 1.81818C101.48 5.77264 98.9019 9.74544 96.233 13.7365C94.9898 15.6588 93.9658 17.3065 93.1614 18.698C92.3203 20.0893 91.8998 21.078 91.8998 21.6638C91.8998 22.1215 92.1192 22.3595 92.5397 22.3778C93.4722 22.3961 94.7886 21.5722 96.4524 19.8879C98.061 18.2769 99.4141 16.5193 100.566 14.6153L100.804 14.7434C99.9449 16.2813 98.6463 18.0022 96.8912 19.9062C96.1051 20.73 95.3554 21.3892 94.6058 21.9018C93.8378 22.4143 93.143 22.689 92.4849 22.7073C91.2233 22.6707 90.6199 22.1947 90.6382 21.2793C90.6382 20.8766 90.7297 20.5103 90.8942 20.1442C91.0221 19.7964 91.1685 19.5034 91.3147 19.2289L91.2599 19.1922C90.6382 19.9794 89.9069 20.73 89.0658 21.4623C88.6453 21.8286 88.2065 22.1215 87.7311 22.3412C87.2557 22.5791 86.7438 22.7073 86.2136 22.7257C85.5188 22.7073 85.0069 22.4693 84.6412 22.0482C84.2573 21.6455 84.0561 21.1511 84.0561 20.5287C84.0744 19.6682 84.3669 18.7529 84.9338 17.746C85.4822 16.7756 86.1771 15.842 87.0364 14.9815C87.8957 14.1026 88.8099 13.3887 89.7789 12.8212C90.7297 12.2719 91.6256 11.9973 92.4665 11.9973C93.1248 11.9973 93.6368 12.1804 93.9841 12.5648C94.3315 12.9676 94.4961 13.4802 94.4778 14.121H94.5692L102.029 1.85479H103.967V1.81818ZM93.6916 14.121C93.6916 13.6084 93.6184 13.1873 93.4904 12.8578C93.3259 12.5099 92.9419 12.3452 92.3751 12.3085C91.7718 12.3268 91.1136 12.6197 90.3822 13.169C89.6326 13.7548 88.9196 14.4871 88.2065 15.3842C87.53 16.2447 86.9632 17.1234 86.5244 18.0388C86.0491 18.9725 85.8297 19.7964 85.8297 20.5287C85.8297 20.9498 85.9211 21.2977 86.0856 21.554C86.2136 21.8468 86.4878 21.9933 86.9084 21.9933C87.4569 21.9933 88.1151 21.682 88.8464 21.078C89.6143 20.5103 90.364 19.7964 91.1136 18.9359C91.8632 18.0754 92.4666 17.1967 92.9603 16.2996C93.4174 15.4757 93.6733 14.7252 93.6916 14.121Z" fill="#DDDDDD"/>
<path id="Vector_7" d="M104.241 12.217C102.157 15.2743 100.676 17.4896 99.7985 18.8444C98.8844 20.1991 98.4454 21.1145 98.4639 21.6089C98.4454 22.1215 98.6463 22.3777 99.0668 22.3777C99.6522 22.3777 100.365 22.0665 101.206 21.4441C102.029 20.8582 102.87 20.1259 103.693 19.2655C105.484 17.3797 106.728 15.8418 107.404 14.597L107.642 14.7617C106.856 16.1348 105.558 17.7458 103.766 19.6133C102.924 20.4737 102.066 21.206 101.225 21.7919C100.365 22.3777 99.5605 22.689 98.8473 22.7073C98.3361 22.689 97.9517 22.5425 97.714 22.2679C97.458 21.9933 97.3118 21.6638 97.3118 21.2793C97.3118 20.4737 97.714 19.4485 98.5 18.2036C99.2863 16.9404 100.585 14.9448 102.358 12.217H104.241ZM105.923 6.66971C106.198 6.66971 106.417 6.76125 106.582 6.92602C106.746 7.12741 106.838 7.36541 106.838 7.64002C106.819 8.28079 106.509 8.61033 105.923 8.62863C105.32 8.61033 105.028 8.28079 105.009 7.64002C105.009 7.36541 105.101 7.12741 105.302 6.92602C105.43 6.74294 105.649 6.66971 105.923 6.66971Z" fill="#DDDDDD"/>
<path id="Vector_8" d="M117.167 1.81818C114.023 6.98096 110.787 11.9789 107.44 16.8489L107.496 16.9037C108.501 15.6954 109.525 14.5786 110.604 13.5535C111.628 12.5282 112.761 11.9973 114.004 11.9607C114.644 11.9789 115.12 12.1255 115.395 12.4183C115.669 12.7113 115.815 13.114 115.815 13.6084C115.815 14.0844 115.686 14.5055 115.412 14.8716C115.138 15.2378 114.772 15.549 114.316 15.8236C113.364 16.3729 112.433 16.7023 111.5 16.8489V16.9037C112.067 17.2333 112.36 17.8009 112.377 18.6063C112.36 19.0823 112.213 19.595 111.957 20.126C111.664 20.7118 111.5 21.261 111.481 21.8102C111.481 22.1947 111.646 22.3778 111.957 22.3778C113.109 22.3778 114.626 21.4441 116.491 19.5583C117.68 18.3866 119.014 16.739 120.478 14.6336L120.733 14.8167C119.947 16.0616 118.575 17.7642 116.619 19.8879C114.772 21.7553 113.145 22.689 111.774 22.7073C110.567 22.7073 109.946 22.1764 109.927 21.1329C109.927 20.8399 110 20.5103 110.147 20.1809C110.256 19.8513 110.402 19.5218 110.549 19.174C110.732 18.8261 110.879 18.5148 111.006 18.2402C111.134 17.9656 111.189 17.746 111.189 17.5628C111.17 17.1783 111.006 16.9953 110.714 16.9953C110.531 16.9953 110.329 17.0319 110.074 17.1052C109.8 17.1967 109.507 17.2333 109.196 17.2333C108.921 17.2333 108.775 17.1418 108.775 16.9586C108.758 16.8122 108.904 16.7207 109.214 16.7023C109.434 16.7207 109.745 16.739 110.165 16.7573C111.354 16.7573 112.341 16.4826 113.109 15.8969C113.858 15.3476 114.261 14.597 114.279 13.645C114.224 12.8212 113.895 12.4183 113.274 12.4183C112.724 12.4367 112.067 12.7662 111.299 13.407C110.494 14.0661 109.653 14.9082 108.794 15.9517C107.934 16.977 107.112 18.0754 106.325 19.2105C105.539 20.3639 104.881 21.4623 104.369 22.4693H102.449C106.746 15.6588 111.061 8.81174 115.395 1.89141L117.167 1.81818Z" fill="#DDDDDD"/>
<path id="Vector_9" d="M133.824 14.9448C132.819 16.0981 131.74 16.684 130.569 16.7023C130.058 16.7023 129.6 16.5742 129.217 16.3178C128.814 16.0799 128.504 15.8053 128.284 15.4574H128.23C127.772 17.0685 126.785 18.6429 125.285 20.1991C124.555 20.9314 123.768 21.5356 122.909 21.9933C122.049 22.4693 121.154 22.7073 120.258 22.7439C119.453 22.7255 118.832 22.4693 118.411 21.975C117.972 21.4807 117.753 20.8215 117.753 19.9977C117.753 19.302 117.991 18.4965 118.466 17.5811C118.905 16.7023 119.508 15.8418 120.276 14.9814C121.044 14.121 121.903 13.4253 122.873 12.876C123.804 12.3085 124.792 12.0156 125.816 11.9973C126.602 11.9973 127.224 12.2352 127.663 12.693C128.101 13.1506 128.339 13.7731 128.358 14.5786C128.394 15.0364 128.613 15.4574 128.998 15.8418C129.381 16.2447 129.893 16.446 130.533 16.446C131.703 16.4277 132.727 15.8785 133.587 14.8349L133.824 14.9448ZM119.288 20.6934C119.288 21.7919 119.673 22.3594 120.44 22.3777C121.227 22.3777 121.995 22.0482 122.762 21.4074C123.494 20.8399 124.17 20.0893 124.774 19.1738C126.09 17.2333 126.766 15.4574 126.803 13.8097C126.803 12.8577 126.383 12.3634 125.56 12.3268C124.938 12.3268 124.262 12.6014 123.549 13.169C122.854 13.7181 122.196 14.4505 121.52 15.3293C120.88 16.1897 120.349 17.0868 119.928 18.0388C119.508 18.9725 119.288 19.8513 119.288 20.6934Z" fill="#DDDDDD"/>
<path id="Vector_10" d="M137.317 12.217C136.476 13.2788 135.451 14.6885 134.299 16.4461C133.769 17.2882 133.312 18.0938 132.947 18.8993C132.544 19.7048 132.343 20.4188 132.343 21.0596C132.343 21.4258 132.453 21.7186 132.69 21.975C132.91 22.2313 133.257 22.3778 133.733 22.3778C134.501 22.3778 135.286 22.0482 136.091 21.4074C136.859 20.8216 137.591 20.071 138.267 19.174C138.944 18.2585 139.474 17.3248 139.876 16.4095C140.26 15.4941 140.461 14.7068 140.48 14.0111C140.48 13.8464 140.442 13.6816 140.369 13.4802C140.296 13.2971 140.26 13.1141 140.26 12.9127C140.26 12.6564 140.333 12.4367 140.48 12.2536C140.626 12.0522 140.808 11.9424 141.028 11.9424C141.302 11.9424 141.54 12.0888 141.741 12.4C141.942 12.7479 142.034 13.2971 142.034 14.0844C142.015 14.5055 141.979 14.8899 141.923 15.2378C142.124 15.549 142.454 15.7869 142.875 15.9701C143.258 16.1714 143.642 16.2629 144.027 16.2629C144.557 16.2629 145.105 16.1165 145.672 15.8053C146.202 15.549 146.659 15.1279 147.025 14.5237L147.263 14.6885C146.97 15.256 146.531 15.7138 145.928 16.0616C145.306 16.4461 144.648 16.6292 143.99 16.6292C143.588 16.6292 143.185 16.5376 142.801 16.3362C142.4 16.1714 142.052 15.9517 141.796 15.7138C141.266 17.3431 140.187 18.8993 138.56 20.3639C137.773 21.0596 136.951 21.6089 136.073 22.03C135.196 22.4693 134.318 22.689 133.477 22.7073C131.813 22.7256 130.99 21.8834 130.972 20.1991C130.972 19.595 131.155 18.9176 131.539 18.2036C131.868 17.5079 132.288 16.7939 132.8 16.0799C133.294 15.3659 133.788 14.6519 134.263 13.9562C134.738 13.2971 135.141 12.7296 135.451 12.1986H137.317V12.217Z" fill="#DDDDDD"/>
<path id="Vector_11" d="M155.143 12.217H157.026C155.526 14.304 154.247 16.1898 153.168 17.8924C152.035 19.595 151.468 20.8399 151.449 21.5905C151.449 22.1031 151.706 22.3594 152.236 22.3594C152.656 22.3594 153.204 22.1397 153.827 21.7004C154.448 21.2976 155.143 20.7484 155.875 20.0161C157.429 18.5514 158.927 16.7024 160.335 14.4871L160.5 14.5421C159.421 16.2996 158.068 18.0754 156.459 19.8513C155.655 20.6751 154.887 21.3525 154.137 21.8834C153.333 22.4144 152.601 22.689 151.925 22.7073C150.846 22.6706 150.298 22.1764 150.298 21.2426C150.316 20.6935 150.444 20.1442 150.681 19.595L150.627 19.5584C150.115 20.1808 149.401 20.8399 148.506 21.5356C147.573 22.2679 146.678 22.6524 145.818 22.689C145.123 22.6706 144.63 22.4327 144.356 22.0116C144.044 21.5722 143.898 21.0596 143.898 20.4738C143.898 19.6133 144.155 18.698 144.684 17.7093C145.16 16.7573 145.8 15.8419 146.568 14.9631C147.372 14.0844 148.213 13.3704 149.146 12.8211C150.041 12.2536 150.882 11.9607 151.706 11.9424C152.474 11.9607 153.077 12.1621 153.48 12.5282C153.844 12.9309 154.064 13.3887 154.156 13.9196H154.21L155.143 12.217ZM145.599 20.5836C145.599 21.5173 145.946 21.9933 146.659 22.0116C147.19 22.0116 147.811 21.737 148.543 21.2061C149.255 20.6751 149.987 19.9978 150.7 19.174C151.432 18.3501 152.035 17.453 152.51 16.4644C152.967 15.5124 153.187 14.597 153.204 13.7182C153.168 12.8028 152.729 12.3268 151.888 12.3085C151.321 12.3085 150.681 12.5648 149.951 13.0591C149.219 13.5717 148.524 14.2491 147.866 15.0913C147.226 15.9151 146.678 16.7939 146.257 17.7276C145.818 18.7162 145.599 19.6682 145.599 20.5836Z" fill="#DDDDDD"/>
</g>
<defs>
<clipPath id="clip0_1_33">
<rect width="160" height="23.4146" fill="white" transform="translate(0.5 0.5)"/>
</clipPath>
</defs>
</svg>
