<svg width="181" height="43" viewBox="0 0 181 43" fill="none" xmlns="http://www.w3.org/2000/svg">
<g id="Logo_1.svg" clip-path="url(#clip0_1_713)">
<path id="Vector" d="M4.73722 31.259H6.85583L9.22127 38.5501C9.34466 38.9208 9.46812 39.1679 9.59151 39.3121C9.7149 39.4563 9.92059 39.5181 10.1881 39.4975V39.9094H8.50134L6.07421 32.4123H6.03307C5.97136 32.5977 5.93022 32.7831 5.88908 32.9685C5.86851 33.1126 5.82738 33.2568 5.80681 33.4216C5.76567 33.5657 5.70396 33.8335 5.60112 34.2248C5.49828 34.5956 5.41599 34.9457 5.31315 35.2752C5.2103 35.6048 5.08689 36.0167 4.92233 36.511C4.53152 37.7262 4.16128 38.6324 3.81161 39.1885C3.46193 39.7446 2.96827 40.0329 2.33063 40.0329C2.08381 40.0329 1.89868 39.9712 1.71356 39.8682C1.52844 39.7446 1.44617 39.5798 1.44617 39.3739C1.44617 39.1473 1.50788 38.9826 1.65185 38.8796C1.79584 38.756 1.93982 38.7148 2.12494 38.7148C2.24836 38.7148 2.39234 38.756 2.59803 38.8384C2.76258 38.9002 2.84486 38.9208 2.886 38.9208C3.23568 38.9208 3.5442 38.6118 3.79103 37.9939C4.03786 37.3761 4.3464 36.4904 4.69607 35.3165C4.8812 34.6779 5.04575 34.1013 5.18974 33.5452C5.33372 33.0096 5.39543 32.5977 5.39543 32.3506C5.39543 31.9593 5.1486 31.7533 4.65493 31.7121V31.259H4.73722Z" fill="#DDDDDD"/>
<path id="Vector_2" d="M15.1247 39.4563L15.207 39.6005C15.0013 39.8888 14.7339 40.033 14.4254 40.033C14.014 40.033 13.7466 39.8064 13.6231 39.3533H13.6026C13.1707 39.8064 12.6975 40.033 12.1627 40.033C11.6896 40.033 11.3194 39.9094 11.0932 39.6417C10.8669 39.3946 10.7435 39.0856 10.7435 38.7354C10.7435 38.3236 10.8669 37.994 11.1137 37.7468C11.3606 37.4997 11.7102 37.3143 12.1422 37.2113C12.5741 37.1084 13.0267 37.026 13.4997 37.0054C13.4997 36.5111 13.438 36.1403 13.3352 35.8726C13.2117 35.6254 12.9855 35.5018 12.5947 35.5018C12.245 35.5018 12.0393 35.6872 11.957 36.058C11.8953 36.3051 11.7513 36.4287 11.5251 36.4287C11.2577 36.4287 11.1343 36.3051 11.1343 36.058C11.1343 35.8108 11.2782 35.6048 11.5868 35.4194C11.8953 35.2341 12.2656 35.1311 12.6976 35.1311C13.438 35.1311 13.9111 35.3371 14.0962 35.7284C14.2814 36.1197 14.3842 36.614 14.3842 37.232V38.7767C14.3842 39.1474 14.4664 39.374 14.6104 39.4769C14.7956 39.5387 14.9601 39.5387 15.1247 39.4563ZM13.5203 37.4173C12.8827 37.4379 12.4301 37.5821 12.1422 37.8292C11.8542 38.0764 11.7102 38.3647 11.7102 38.7148C11.7102 38.962 11.7925 39.1474 11.957 39.2916C12.1216 39.4357 12.3273 39.5181 12.5741 39.5181C12.965 39.5181 13.2323 39.3739 13.3557 39.0856C13.4791 38.7973 13.5409 38.3853 13.5409 37.8498V37.4173H13.5203Z" fill="#DDDDDD"/>
<path id="Vector_3" d="M16.1942 36.5728V35.1929H16.441C16.5233 35.2958 16.6261 35.3371 16.7701 35.3371C16.8318 35.3371 16.9141 35.3165 16.9964 35.2959C17.0786 35.2753 17.2021 35.2341 17.3461 35.2135C17.5928 35.1517 17.8191 35.1311 18.0248 35.1311C18.5596 35.1311 18.9916 35.2547 19.3001 35.4813C19.6086 35.7284 19.7732 35.9961 19.7732 36.3463C19.7732 36.7788 19.6292 37.129 19.3206 37.3761V37.4173C19.5263 37.4791 19.7115 37.6027 19.8555 37.788C19.9994 37.9734 20.0817 38.2 20.0817 38.4471C20.0817 38.962 19.8966 39.374 19.5058 39.6417C19.1149 39.9094 18.6419 40.0536 18.0454 40.0536C17.7368 40.0536 17.5106 40.033 17.4078 40.0124C17.2843 39.9712 17.1815 39.93 17.0992 39.8477C17.0169 39.7653 16.9141 39.7241 16.8112 39.6829C16.7084 39.6417 16.5027 39.6211 16.1942 39.6211C16.0502 39.6211 15.865 39.7034 15.6594 39.8477L15.4948 39.7034C15.8239 39.1474 16.153 38.8796 16.5027 38.8796C16.7084 38.8796 16.9347 38.9826 17.2021 39.2091C17.5723 39.4975 17.9014 39.6417 18.1894 39.6417C18.4568 39.6417 18.683 39.5593 18.8682 39.3739C19.0327 39.2091 19.1356 38.9414 19.1356 38.5913C19.1356 38.2617 19.0122 37.9734 18.7653 37.7674C18.4156 38.0351 18.0042 38.1587 17.5723 38.1587C17.3255 38.1587 17.1198 38.097 16.9964 37.9734C16.8524 37.8498 16.7907 37.7263 16.7907 37.5821C16.7907 37.4173 16.873 37.2937 17.0169 37.1495C17.1609 37.026 17.3871 36.9436 17.6957 36.9436C18.0248 36.9436 18.3539 37.0054 18.683 37.1495C18.8065 36.923 18.8887 36.6758 18.8887 36.4081C18.8887 36.1815 18.827 35.9756 18.683 35.7696C18.539 35.5637 18.2922 35.4813 17.9014 35.4813C17.2638 35.4813 16.8112 35.8314 16.5644 36.5523H16.1942V36.5728ZM18.4568 37.4791C18.2099 37.3349 17.922 37.2525 17.6135 37.2525C17.3049 37.2525 17.1609 37.3555 17.1609 37.5821C17.1609 37.7674 17.3049 37.8704 17.5723 37.8704C17.9425 37.8704 18.2305 37.7468 18.4568 37.4791Z" fill="#DDDDDD"/>
<path id="Vector_4" d="M24.936 38.9825C24.6891 39.2915 24.4012 39.5592 24.0721 39.7446C23.7429 39.93 23.3933 40.0329 23.0436 40.0329C22.4677 40.0329 21.9534 39.8476 21.5215 39.4768C21.0895 39.1061 20.8633 38.5294 20.8633 37.7468C20.8633 36.9229 21.069 36.2845 21.4804 35.8108C21.8918 35.3576 22.406 35.1105 23.0025 35.1105C23.5784 35.1105 24.0309 35.3164 24.36 35.7284C24.6891 36.1403 24.8331 36.6346 24.8126 37.1907H21.8918C21.7683 38.7354 22.2208 39.5181 23.2082 39.5181C23.7429 39.5181 24.2366 39.2709 24.7303 38.7766L24.936 38.9825ZM23.8458 36.8199C23.8663 36.5316 23.8046 36.2432 23.6812 35.9343C23.5579 35.6459 23.311 35.5018 22.9408 35.5018C22.6734 35.5018 22.4471 35.6048 22.2414 35.8108C22.0357 36.0167 21.9329 36.3462 21.9123 36.8199H23.8458Z" fill="#DDDDDD"/>
<path id="Vector_5" d="M25.5325 42.1749V41.8248C25.7588 41.8041 25.9028 41.7218 25.9645 41.5776C26.0262 41.4334 26.0673 41.2275 26.0673 40.9597V37.4583C26.0673 36.9228 26.2113 36.4079 26.4787 35.9136C26.7666 35.3987 27.3632 35.1516 28.2682 35.1516C28.9058 35.1516 29.4612 35.3575 29.9137 35.79C30.3662 36.2226 30.5925 36.8199 30.5925 37.5819C30.5925 37.9321 30.5308 38.2822 30.4074 38.6323C30.284 38.9619 30.0783 39.2502 29.8109 39.5179C29.4201 39.8681 28.9264 40.0535 28.3505 40.0535C27.7334 40.0535 27.2809 39.8887 26.9929 39.5592H26.9518V40.9597C26.9518 41.2686 26.9929 41.4952 27.0958 41.6394C27.1986 41.7835 27.3426 41.8659 27.5689 41.8659V42.2161H25.5325V42.1749ZM26.9518 36.8405V38.2616C26.9518 38.5911 27.034 38.9001 27.2192 39.1884C27.4043 39.4768 27.754 39.6415 28.2476 39.6415C28.6384 39.6415 28.9675 39.4974 29.2144 39.209C29.4612 38.9206 29.5846 38.3646 29.5846 37.5819C29.5846 36.202 29.1527 35.5017 28.2682 35.5017C27.8568 35.5017 27.5277 35.6459 27.3015 35.9342C27.0752 36.2226 26.9518 36.5315 26.9518 36.8405Z" fill="#DDDDDD"/>
<path id="Vector_6" d="M31.3741 39.9299V39.5798C31.6005 39.5385 31.7444 39.4562 31.8061 39.312C31.8678 39.1678 31.9089 38.9619 31.9089 38.6941V36.4698C31.9089 36.1814 31.8678 35.9548 31.8061 35.8312C31.7444 35.7077 31.6005 35.6253 31.3741 35.5635V35.2134H33.3488V35.5635C33.1226 35.6047 32.958 35.6871 32.8962 35.8312C32.8345 35.9754 32.7934 36.1814 32.7934 36.4698V37.3965H34.9737V36.4698C34.9737 36.1814 34.9326 35.9548 34.8709 35.8312C34.8092 35.6871 34.6446 35.6047 34.4184 35.5841V35.2134H36.4136V35.5635C36.2491 35.6047 36.1256 35.6665 36.0434 35.7282C35.9611 35.7901 35.9199 35.8931 35.8994 36.0166C35.8788 36.1402 35.8582 36.2844 35.8582 36.4698V38.6941C35.8582 38.9619 35.8994 39.1884 35.9611 39.312C36.0434 39.4562 36.1873 39.5385 36.393 39.5798V39.9299H34.3978V39.5798C34.6241 39.5592 34.768 39.4768 34.8297 39.3326C34.912 39.1884 34.9326 38.9825 34.9326 38.6941V37.7673H32.7523V38.6941C32.7523 38.9619 32.7935 39.1884 32.8552 39.3326C32.9169 39.4768 33.0814 39.5592 33.3076 39.5798V39.9299H31.3741Z" fill="#DDDDDD"/>
<path id="Vector_7" d="M41.5763 39.4563L41.6586 39.6005C41.453 39.8888 41.1856 40.033 40.877 40.033C40.4656 40.033 40.1982 39.8064 40.0748 39.3533H40.0542C39.6223 39.8064 39.1492 40.033 38.6144 40.033C38.1413 40.033 37.7711 39.9094 37.5448 39.6417C37.3185 39.3946 37.1951 39.0856 37.1951 38.7354C37.1951 38.3236 37.3185 37.994 37.5654 37.7468C37.8122 37.4997 38.1619 37.3143 38.5938 37.2113C39.0258 37.1084 39.4783 37.026 39.9514 37.0054C39.9514 36.5111 39.8897 36.1403 39.7869 35.8726C39.6634 35.6254 39.4372 35.5018 39.0464 35.5018C38.6967 35.5018 38.491 35.6872 38.4087 36.058C38.347 36.3051 38.203 36.4287 37.9768 36.4287C37.7094 36.4287 37.586 36.3051 37.586 36.058C37.586 35.8108 37.7299 35.6048 38.0385 35.4194C38.347 35.2341 38.7172 35.1311 39.1492 35.1311C39.8897 35.1311 40.3628 35.3371 40.5479 35.7284C40.733 36.1197 40.8359 36.614 40.8359 37.232V38.7767C40.8359 39.1474 40.9181 39.374 41.0621 39.4769C41.2266 39.5387 41.3912 39.5387 41.5763 39.4563ZM39.9514 37.4173C39.3138 37.4379 38.8612 37.5821 38.5732 37.8292C38.2853 38.0764 38.1413 38.3647 38.1413 38.7148C38.1413 38.962 38.2236 39.1474 38.3881 39.2916C38.5527 39.4357 38.7584 39.5181 39.0052 39.5181C39.396 39.5181 39.6634 39.3739 39.7869 39.0856C39.9102 38.7973 39.9719 38.3853 39.9719 37.8498V37.4173H39.9514Z" fill="#DDDDDD"/>
<path id="Vector_8" d="M46.6364 35.2134V35.5636C46.2868 35.6253 46.1016 35.8313 46.1016 36.202V38.6942C46.1016 38.9619 46.1428 39.1885 46.2045 39.3326C46.2867 39.4769 46.4307 39.5592 46.6364 39.5798V39.9299H44.6412V39.5798C44.8675 39.5386 45.0115 39.4562 45.0732 39.312C45.1555 39.1679 45.176 38.9619 45.176 38.6942V37.7467H45.032C44.7235 37.7262 44.4767 37.8086 44.3327 37.9733C44.1887 38.1587 44.0448 38.4059 43.9213 38.7354C43.7979 39.0649 43.6745 39.3121 43.5716 39.4769C43.4688 39.6416 43.2837 39.7652 43.0368 39.8682C42.7694 39.9712 42.3786 40.0123 41.8438 40.0123V39.6622C42.1318 39.6416 42.3169 39.5592 42.4404 39.3945C42.5432 39.2503 42.6666 39.0032 42.8106 38.6942C42.934 38.3852 43.078 38.1381 43.2425 37.9939C43.4071 37.8497 43.6128 37.7262 43.8596 37.6644V37.6232C43.4277 37.6026 43.078 37.4584 42.8311 37.2319C42.5637 36.9847 42.4404 36.7169 42.4404 36.4286C42.4404 35.8725 42.646 35.543 43.078 35.3988C43.5099 35.2546 44.0241 35.1929 44.6001 35.1929H46.6364V35.2134ZM45.1966 35.6047H44.5589C43.8185 35.6047 43.4688 35.9137 43.4688 36.511C43.4688 37.0877 43.7979 37.376 44.4355 37.376H45.1966V35.6047Z" fill="#DDDDDD"/>
<path id="Vector_9" d="M53.2392 37.17C53.63 37.17 53.8974 37.1288 54.0619 37.0052C54.2265 36.8816 54.3704 36.6757 54.5144 36.3667C54.7201 35.9754 54.8435 35.7283 54.9464 35.584C55.0287 35.4399 55.1932 35.3163 55.3989 35.2133C55.6046 35.1103 55.8926 35.0897 56.2217 35.1103V36.4079H55.872C55.7486 36.1607 55.6046 36.0372 55.4606 36.0372C55.3166 36.0372 55.1521 36.202 54.9258 36.5521C54.7407 36.861 54.535 37.0876 54.3499 37.1906V37.2317C54.7407 37.2936 55.0698 37.4789 55.3578 37.7879C55.6251 38.0556 55.8103 38.3646 55.9131 38.6735C56.016 38.9824 56.1188 39.209 56.2011 39.3532C56.2834 39.4973 56.4685 39.6003 56.7771 39.6827V39.9299C56.6125 39.971 56.3657 40.0123 56.0571 40.0123C55.6869 40.0123 55.4401 39.9093 55.2755 39.7239C55.111 39.5386 54.9258 39.1472 54.6584 38.5705C54.535 38.241 54.391 37.9939 54.247 37.8085C54.103 37.6231 53.8768 37.5407 53.5683 37.5407H53.2392V38.6735C53.2392 38.9413 53.2803 39.1678 53.342 39.2914C53.4243 39.4356 53.5477 39.5179 53.774 39.5592V39.9093H51.7993V39.5592C52.0256 39.5179 52.1696 39.4356 52.2312 39.2914C52.2929 39.1472 52.3341 38.9413 52.3341 38.6735V36.4491C52.3341 36.1607 52.2929 35.9342 52.2312 35.8106C52.1696 35.687 52.0256 35.6047 51.7993 35.5429V35.2133H53.774V35.5635C53.5683 35.6047 53.4243 35.687 53.342 35.8312C53.2597 35.9548 53.2392 36.1813 53.2392 36.4697V37.17Z" fill="#DDDDDD"/>
<path id="Vector_10" d="M59.6978 35.1311C60.4794 35.1311 61.0553 35.3783 61.4461 35.8931C61.8369 36.4081 62.022 36.9641 62.022 37.5821C62.022 38.4059 61.7752 39.0032 61.2815 39.4151C60.7879 39.827 60.2531 40.033 59.6978 40.033C59.1424 40.033 58.6076 39.827 58.1139 39.4151C57.6203 39.0032 57.3734 38.3853 57.3734 37.5821C57.3734 36.9641 57.5791 36.4081 57.97 35.8931C58.3607 35.3783 58.9367 35.1311 59.6978 35.1311ZM59.6978 35.5018C59.1424 35.5018 58.7927 35.7078 58.6487 36.1197C58.4841 36.5317 58.4019 37.026 58.4019 37.5821C58.4019 38.1794 58.4841 38.6737 58.6487 39.065C58.8133 39.4563 59.163 39.6623 59.6978 39.6623C60.2325 39.6623 60.5822 39.4563 60.7468 39.065C60.9113 38.6737 60.9935 38.1794 60.9935 37.5821C60.9935 37.026 60.9113 36.5317 60.7673 36.1197C60.6233 35.7078 60.2531 35.5018 59.6978 35.5018Z" fill="#DDDDDD"/>
<path id="Vector_11" d="M66.794 38.8384L66.9997 39.0649C66.4443 39.7034 65.7861 40.0329 65.0456 40.0329C64.3874 40.0329 63.832 39.8064 63.4001 39.3739C62.9681 38.9414 62.7625 38.3647 62.7625 37.6644C62.7625 36.9641 62.9681 36.3668 63.4001 35.8725C63.8115 35.3782 64.3874 35.1105 65.1073 35.1105C65.3746 35.1105 65.6421 35.1516 65.8889 35.2341C66.1357 35.3164 66.3209 35.4194 66.4443 35.5636C66.5677 35.7078 66.65 35.8519 66.65 36.0167C66.65 36.1197 66.6088 36.2226 66.506 36.3051C66.4237 36.3874 66.3209 36.4492 66.1974 36.4492C65.8889 36.4492 65.7243 36.2845 65.7038 35.9755C65.7038 35.8519 65.6626 35.7284 65.601 35.6459C65.5393 35.543 65.3747 35.5018 65.1484 35.5018C64.7988 35.5018 64.4902 35.6666 64.2229 35.9961C63.9554 36.3256 63.8115 36.8818 63.8115 37.6644C63.8115 38.3852 63.976 38.859 64.3257 39.1061C64.6753 39.3533 65.0045 39.4768 65.3336 39.4768C65.5804 39.4768 65.8478 39.4151 66.1357 39.2915C66.4031 39.1679 66.6294 39.0031 66.794 38.8384Z" fill="#DDDDDD"/>
<path id="Vector_12" d="M69.3651 35.2134L70.6608 38.5705H70.6814L72.2039 35.2134H73.705V35.5635C73.479 35.6047 73.3347 35.6871 73.2736 35.8312C73.2118 35.9548 73.1705 36.1814 73.1705 36.4698V38.6941C73.1705 38.9825 73.2118 39.2091 73.2935 39.3532C73.376 39.4974 73.5202 39.5798 73.705 39.5798V39.9299H71.7305V39.5798C72.1008 39.5798 72.2856 39.2914 72.2856 38.6941V36.1608H72.2039L70.4554 40.0329H70.2699L68.7069 35.9961H68.6041V38.9619C68.6041 39.3532 68.7892 39.5592 69.1389 39.5798V39.9299H67.6785V39.5798C68.0282 39.5385 68.2132 39.3326 68.2132 38.9619V36.1196C68.2132 35.7695 68.0282 35.5841 67.6785 35.5841V35.2134H69.3651Z" fill="#DDDDDD"/>
<path id="Vector_13" d="M78.5389 38.9825C78.2923 39.2915 78.0044 39.5592 77.6753 39.7446C77.3462 39.93 76.9966 40.0329 76.6469 40.0329C76.0704 40.0329 75.5566 39.8476 75.1244 39.4768C74.6923 39.1061 74.4662 38.5294 74.4662 37.7468C74.4662 36.9229 74.6717 36.2845 75.0832 35.8108C75.4947 35.3576 76.0086 35.1105 76.6056 35.1105C77.1814 35.1105 77.6341 35.3164 77.9632 35.7284C78.2923 36.1403 78.4359 36.6346 78.4153 37.1907H75.4947C75.3711 38.7354 75.8238 39.5181 76.8111 39.5181C77.3462 39.5181 77.8395 39.2709 78.3335 38.7766L78.5389 38.9825ZM77.4486 36.8199C77.4692 36.5316 77.4074 36.2432 77.2844 35.9343C77.1607 35.6459 76.9141 35.5018 76.5438 35.5018C76.2765 35.5018 76.0498 35.6048 75.8444 35.8108C75.639 36.0167 75.5359 36.3462 75.5153 36.8199H77.4486Z" fill="#DDDDDD"/>
<path id="Vector_14" d="M79.1353 35.2134H83.6195V36.7169H83.2698C83.2079 35.9342 82.7146 35.5635 81.8298 35.5841V38.6735C81.8298 38.9412 81.871 39.1472 81.9534 39.2914C82.0359 39.4356 82.1795 39.5385 82.4062 39.5592V39.9093H80.4111V39.5592C80.6371 39.518 80.802 39.4356 80.8631 39.312C80.9249 39.1678 80.9662 38.9619 80.9662 38.6735V35.5841C80.1026 35.5429 79.6292 35.9136 79.5262 36.7169H79.1765V35.2134H79.1353Z" fill="#DDDDDD"/>
<path id="Vector_15" d="M86.5407 35.1311C87.3218 35.1311 87.8982 35.3783 88.2885 35.8931C88.6794 36.4081 88.8649 36.9641 88.8649 37.5821C88.8649 38.4059 88.6175 39.0032 88.1243 39.4151C87.6303 39.827 87.0958 40.033 86.5407 40.033C85.9849 40.033 85.4504 39.827 84.9564 39.4151C84.4631 39.0032 84.2158 38.3853 84.2158 37.5821C84.2158 36.9641 84.4219 36.4081 84.8128 35.8931C85.203 35.3783 85.7795 35.1311 86.5407 35.1311ZM86.5407 35.5018C85.9849 35.5018 85.6352 35.7078 85.4916 36.1197C85.3267 36.5317 85.2443 37.026 85.2443 37.5821C85.2443 38.1794 85.3267 38.6737 85.4916 39.065C85.6558 39.4563 86.0055 39.6623 86.5407 39.6623C87.0752 39.6623 87.4249 39.4563 87.5891 39.065C87.754 38.6737 87.8364 38.1794 87.8364 37.5821C87.8364 37.026 87.754 36.5317 87.6097 36.1197C87.4661 35.7078 87.1164 35.5018 86.5407 35.5018Z" fill="#DDDDDD"/>
<path id="Vector_16" d="M91.1066 35.2134H92.7314L93.7805 38.7559C93.8836 39.0443 93.966 39.2708 94.0684 39.3944C94.1714 39.5385 94.3157 39.5798 94.5418 39.5592V39.9093H93.1636L92.0939 36.2432H92.0527C92.0527 36.2844 92.0321 36.3255 92.0114 36.3874C91.9908 36.4285 91.9709 36.4904 91.9709 36.5521C91.9091 36.7787 91.8472 36.9435 91.8266 37.0671C91.58 38.0145 91.3121 38.7353 91.0448 39.2502C90.7776 39.7651 90.4279 40.0123 90.0163 40.0123C89.8315 40.0123 89.6666 39.9505 89.5643 39.8475C89.4612 39.7445 89.3994 39.6004 89.3994 39.4562C89.3994 39.2091 89.5643 39.0855 89.8727 39.0855C89.9545 39.0855 90.0163 39.1061 90.0576 39.1472C90.1194 39.1884 90.1812 39.2091 90.3042 39.2091C90.5927 39.2091 90.8394 38.8795 91.0654 38.241C91.4769 37.0258 91.6824 36.2638 91.6824 35.9754C91.6824 35.6871 91.4976 35.5635 91.1272 35.5841V35.2134H91.1066Z" fill="#DDDDDD"/>
<path id="Vector_17" d="M97.3806 35.1311C98.1617 35.1311 98.7381 35.3783 99.1283 35.8931C99.5193 36.4081 99.7047 36.9641 99.7047 37.5821C99.7047 38.4059 99.4581 39.0032 98.9641 39.4151C98.4702 39.827 97.9357 40.033 97.3806 40.033C96.8247 40.033 96.2902 39.827 95.7963 39.4151C95.303 39.0032 95.0557 38.3853 95.0557 37.5821C95.0557 36.9641 95.2618 36.4081 95.6527 35.8931C96.0436 35.3783 96.6193 35.1311 97.3806 35.1311ZM97.3806 35.5018C96.8247 35.5018 96.4751 35.7078 96.3315 36.1197C96.1666 36.5317 96.0841 37.026 96.0841 37.5821C96.0841 38.1794 96.1666 38.6737 96.3315 39.065C96.4957 39.4563 96.8454 39.6623 97.3806 39.6623C97.9151 39.6623 98.2648 39.4563 98.4296 39.065C98.5938 38.6737 98.6763 38.1794 98.6763 37.5821C98.6763 37.026 98.5938 36.5317 98.4496 36.1197C98.306 35.7078 97.9563 35.5018 97.3806 35.5018Z" fill="#DDDDDD"/>
<path id="Vector_18" d="M100.466 35.2134H104.21V36.7169H103.86C103.736 36.2844 103.613 35.9961 103.448 35.8518C103.242 35.6665 102.913 35.5841 102.461 35.5841H101.905V38.6735C101.905 39.2708 102.111 39.5798 102.502 39.5592V39.9093H100.466V39.5592C100.692 39.518 100.836 39.4356 100.897 39.2914C100.98 39.1472 101 38.9412 101 38.6735V36.4491C101 36.1402 100.959 35.9342 100.897 35.8107C100.836 35.6871 100.671 35.6047 100.445 35.5429V35.2134H100.466Z" fill="#DDDDDD"/>
<path id="Vector_19" d="M104.806 35.2134H106.78V35.5635C106.575 35.6047 106.431 35.6871 106.348 35.8312C106.266 35.9548 106.245 36.1814 106.245 36.4698V38.2204H106.266L108.364 36.2638C108.364 35.8931 108.2 35.6665 107.829 35.5841V35.2134H109.783V35.5635C109.557 35.6047 109.413 35.6871 109.351 35.8312C109.29 35.9754 109.249 36.1814 109.249 36.4491V38.6735C109.249 38.9412 109.29 39.1472 109.351 39.2914C109.413 39.4356 109.557 39.518 109.783 39.5592V39.9093H107.809V39.5592C108.179 39.518 108.364 39.2297 108.364 38.6735V36.8611H108.343L106.245 38.7971C106.225 39.0237 106.266 39.2091 106.348 39.312C106.431 39.4356 106.575 39.518 106.78 39.5592V39.9093H104.806V39.5592C105.176 39.518 105.361 39.2297 105.361 38.6735V36.4491C105.361 36.1608 105.32 35.9548 105.237 35.7901C105.156 35.6459 105.011 35.5635 104.806 35.5429V35.2134Z" fill="#DDDDDD"/>
<path id="Vector_20" d="M114.988 35.2134V35.5636C114.638 35.6253 114.452 35.8313 114.452 36.202V38.6942C114.452 38.9619 114.494 39.1885 114.555 39.3326C114.638 39.4769 114.781 39.5592 114.988 39.5798V39.9299H112.992V39.5798C113.218 39.5386 113.362 39.4562 113.424 39.312C113.506 39.1679 113.527 38.9619 113.527 38.6942V37.7467H113.383C113.074 37.7262 112.828 37.8086 112.683 37.9733C112.54 38.1587 112.395 38.4059 112.272 38.7354C112.149 39.0649 112.025 39.3121 111.923 39.4769C111.82 39.6416 111.634 39.7652 111.388 39.8682C111.12 39.9712 110.729 40.0123 110.195 40.0123V39.6622C110.483 39.6416 110.668 39.5592 110.791 39.3945C110.894 39.2503 111.017 39.0032 111.162 38.6942C111.285 38.3852 111.429 38.1381 111.594 37.9939C111.758 37.8497 111.964 37.7262 112.211 37.6644V37.6232C111.778 37.6026 111.429 37.4584 111.182 37.2319C110.915 36.9847 110.791 36.7169 110.791 36.4286C110.791 35.8725 110.997 35.543 111.429 35.3988C111.861 35.2546 112.375 35.1929 112.951 35.1929H114.988V35.2134ZM113.568 35.6047H112.931C112.19 35.6047 111.84 35.9137 111.84 36.511C111.84 37.0877 112.169 37.376 112.807 37.376H113.568V35.6047Z" fill="#DDDDDD"/>
<path id="Vector_21" d="M120.17 35.2134H122.146V35.5635C121.94 35.6047 121.796 35.6871 121.714 35.8312C121.631 35.9548 121.61 36.1814 121.61 36.4698V38.2204H121.631L123.729 36.2638C123.729 35.8931 123.564 35.6665 123.194 35.5841V35.2134H125.149V35.5635C124.922 35.6047 124.778 35.6871 124.717 35.8312C124.655 35.9754 124.613 36.1814 124.613 36.4491V38.6735C124.613 38.9412 124.655 39.1472 124.717 39.2914C124.778 39.4356 124.922 39.518 125.149 39.5592V39.9093H123.174V39.5592C123.544 39.518 123.729 39.2297 123.729 38.6735V36.8611H123.709L121.61 38.7971C121.59 39.0237 121.631 39.2091 121.714 39.312C121.796 39.4356 121.94 39.518 122.146 39.5592V39.9093H120.17V39.5592C120.541 39.518 120.726 39.2297 120.726 38.6735V36.4491C120.726 36.1608 120.685 35.9548 120.603 35.7901C120.52 35.6459 120.377 35.5635 120.17 35.5429V35.2134Z" fill="#DDDDDD"/>
<path id="Vector_22" d="M131.998 35.2134L133.294 38.5705H133.315L134.836 35.2134H136.338V35.5635C136.112 35.6047 135.968 35.6871 135.906 35.8312C135.844 35.9548 135.803 36.1814 135.803 36.4698V38.6941C135.803 38.9825 135.844 39.2091 135.927 39.3532C136.009 39.4974 136.153 39.5798 136.338 39.5798V39.9299H134.364V39.5798C134.734 39.5798 134.919 39.2914 134.919 38.6941V36.1608H134.836L133.088 40.0329H132.903L131.34 35.9961H131.237V38.9619C131.237 39.3532 131.422 39.5592 131.772 39.5798V39.9299H130.312V39.5798C130.661 39.5385 130.846 39.3326 130.846 38.9619V36.1196C130.846 35.7695 130.661 35.5841 130.312 35.5841V35.2134H131.998Z" fill="#DDDDDD"/>
<path id="Vector_23" d="M141.193 38.9825C140.945 39.2915 140.657 39.5592 140.328 39.7446C139.999 39.93 139.65 40.0329 139.3 40.0329C138.724 40.0329 138.21 39.8476 137.778 39.4768C137.346 39.1061 137.12 38.5294 137.12 37.7468C137.12 36.9229 137.325 36.2845 137.737 35.8108C138.148 35.3576 138.662 35.1105 139.259 35.1105C139.835 35.1105 140.287 35.3164 140.616 35.7284C140.945 36.1403 141.09 36.6346 141.069 37.1907H138.148C138.025 38.7354 138.478 39.5181 139.465 39.5181C139.999 39.5181 140.493 39.2709 140.987 38.7766L141.193 38.9825ZM140.102 36.8199C140.123 36.5316 140.061 36.2432 139.937 35.9343C139.814 35.6459 139.568 35.5018 139.198 35.5018C138.93 35.5018 138.704 35.6048 138.498 35.8108C138.292 36.0167 138.19 36.3462 138.169 36.8199H140.102Z" fill="#DDDDDD"/>
<path id="Vector_24" d="M146.622 35.2134V35.5635C146.376 35.5635 146.232 35.6253 146.191 35.7489C146.129 35.8725 146.108 36.0784 146.108 36.3462V38.7765C146.108 39.0855 146.15 39.2914 146.253 39.3738C146.355 39.4562 146.54 39.4974 146.808 39.518C147.116 39.518 147.26 39.621 147.26 39.8064C147.26 39.9711 147.137 40.2388 146.911 40.6096C146.684 41.0009 146.479 41.1863 146.293 41.1863C146.211 41.1863 146.15 41.1451 146.15 41.0421C146.15 40.795 146.17 40.6714 146.232 40.6302C146.293 40.589 146.314 40.486 146.314 40.3212C146.314 40.0535 146.129 39.9093 145.759 39.9093H143.188C142.879 39.9093 142.714 40.0535 142.714 40.3212C142.714 40.3624 142.735 40.4448 142.776 40.5684C142.797 40.6095 142.797 40.6302 142.818 40.6508C142.838 40.6714 142.838 40.7125 142.838 40.7538C142.838 40.795 142.838 40.8361 142.859 40.898C142.859 41.0009 142.859 41.0627 142.859 41.1039C142.859 41.1451 142.838 41.1451 142.776 41.1451C142.653 41.1451 142.447 40.9597 142.139 40.6096C141.851 40.2388 141.686 39.9505 141.686 39.7445C141.686 39.621 141.768 39.5385 141.953 39.5385H141.994C142.139 39.5385 142.241 39.518 142.324 39.4562C142.385 39.415 142.468 39.312 142.57 39.2091C142.694 39.0442 142.94 38.55 143.29 37.7261C143.681 36.8199 143.887 36.2432 143.887 35.9754C143.887 35.6253 143.64 35.4811 143.188 35.5017V35.2134H146.622ZM145.204 35.6253C144.895 35.6047 144.689 35.6459 144.607 35.7489C144.525 35.8518 144.401 36.1608 144.237 36.6345C144.196 36.7787 143.948 37.4378 143.455 38.6118C143.27 39.0648 143.167 39.2914 143.167 39.312C143.167 39.4768 143.29 39.5385 143.538 39.5385C143.558 39.5385 143.578 39.5592 143.619 39.5592H145.183V35.6253H145.204Z" fill="#DDDDDD"/>
<path id="Vector_25" d="M147.774 35.2134H149.749V35.5635C149.543 35.6047 149.399 35.6871 149.317 35.8312C149.235 35.9548 149.214 36.1814 149.214 36.4698V38.2204H149.235L151.333 36.2638C151.333 35.8931 151.168 35.6665 150.798 35.5841V35.2134H152.752V35.5635C152.526 35.6047 152.382 35.6871 152.32 35.8312C152.259 35.9754 152.217 36.1814 152.217 36.4491V38.6735C152.217 38.9412 152.259 39.1472 152.32 39.2914C152.382 39.4356 152.526 39.518 152.752 39.5592V39.9093H150.777V39.5592C151.148 39.518 151.333 39.2297 151.333 38.6735V36.8611H151.313L149.214 38.7971C149.194 39.0237 149.235 39.2091 149.317 39.312C149.399 39.4356 149.543 39.518 149.749 39.5592V39.9093H147.774V39.5592C148.145 39.518 148.329 39.2297 148.329 38.6735V36.4491C148.329 36.1608 148.289 35.9548 148.206 35.7901C148.124 35.6459 147.98 35.5635 147.774 35.5429V35.2134Z" fill="#DDDDDD"/>
<path id="Vector_26" d="M158.594 35.2134V35.5635C158.368 35.5635 158.203 35.6459 158.142 35.7901C158.08 35.9342 158.038 36.1402 158.038 36.4285V39.1267C158.038 39.2914 158.142 39.415 158.326 39.5592C158.614 39.7445 158.82 39.9093 158.964 40.0535C159.108 40.1977 159.191 40.4036 159.191 40.6714C159.191 40.898 159.129 41.1039 159.026 41.3098C158.902 41.5158 158.738 41.6806 158.491 41.8248C158.264 41.969 157.977 42.0307 157.648 42.0307C157.298 42.0307 156.866 41.9483 156.372 41.7835C155.982 41.6188 155.673 41.5158 155.447 41.454C155.22 41.3922 155.015 41.3511 154.788 41.3511C154.562 41.3511 154.459 41.4334 154.459 41.6188C154.459 41.6806 154.5 41.7012 154.562 41.7012C154.603 41.7012 154.624 41.6805 154.665 41.66C154.706 41.6394 154.748 41.6188 154.788 41.6188C154.974 41.6188 155.077 41.7218 155.077 41.9071C155.077 42.1543 154.953 42.2573 154.706 42.2573C154.377 42.2573 154.212 42.0925 154.212 41.7424C154.212 41.5776 154.274 41.4128 154.377 41.2687C154.48 41.1245 154.645 41.0009 154.871 40.898C155.097 40.795 155.365 40.7538 155.673 40.7538C155.94 40.7538 156.311 40.8361 156.763 40.9803C157.031 41.0627 157.236 41.1245 157.38 41.1863C157.751 41.3098 158.018 41.3922 158.162 41.3922C158.388 41.3922 158.552 41.3304 158.676 41.1863C158.8 41.0627 158.841 40.898 158.841 40.692C158.841 40.4654 158.738 40.2801 158.552 40.1565C158.347 40.0329 158.121 39.9505 157.833 39.9505H153.513V39.6004C153.74 39.5798 153.883 39.4974 153.945 39.3532C154.028 39.2091 154.048 39.0031 154.048 38.7147V36.4491C154.048 35.8725 153.863 35.5841 153.492 35.5841V35.2134H155.488V35.5635C155.323 35.5841 155.2 35.6253 155.118 35.7077C155.056 35.7901 155.015 35.8725 154.974 35.9754C154.953 36.0784 154.932 36.2226 154.932 36.4285V39.5385H157.113V36.4491C157.113 36.1608 157.072 35.9342 157.01 35.8107C156.928 35.6665 156.784 35.6047 156.578 35.5841V35.2134H158.594Z" fill="#DDDDDD"/>
<path id="Vector_27" d="M159.519 35.2134H161.494V35.5635C161.288 35.6047 161.145 35.6871 161.062 35.8312C160.98 35.9548 160.959 36.1814 160.959 36.4698V38.2204H160.98L163.078 36.2638C163.078 35.8931 162.914 35.6665 162.543 35.5841V35.2134H164.497V35.5635C164.271 35.6047 164.127 35.6871 164.065 35.8312C164.003 35.9754 163.962 36.1814 163.962 36.4491V38.6735C163.962 38.9412 164.003 39.1472 164.065 39.2914C164.127 39.4356 164.271 39.518 164.497 39.5592V39.9093H162.523V39.5592C162.893 39.518 163.078 39.2297 163.078 38.6735V36.8611H163.057L160.959 38.7971C160.938 39.0237 160.98 39.2091 161.062 39.312C161.145 39.4356 161.288 39.518 161.494 39.5592V39.9093H159.519V39.5592C159.889 39.518 160.075 39.2297 160.075 38.6735V36.4491C160.075 36.1608 160.034 35.9548 159.951 35.7901C159.869 35.6459 159.725 35.5635 159.519 35.5429V35.2134Z" fill="#DDDDDD"/>
<path id="Vector_28" d="M165.258 39.9299V39.5798C165.484 39.5385 165.629 39.4562 165.69 39.312C165.752 39.1678 165.793 38.9619 165.793 38.6941V36.4698C165.793 36.1814 165.752 35.9548 165.69 35.8312C165.629 35.7077 165.484 35.6253 165.258 35.5635V35.2134H167.233V35.5635C167.007 35.6047 166.842 35.6871 166.78 35.8312C166.718 35.9754 166.678 36.1814 166.678 36.4698V37.3965H168.858V36.4698C168.858 36.1814 168.816 35.9548 168.755 35.8312C168.694 35.6871 168.529 35.6047 168.303 35.5841V35.2134H170.298V35.5635C170.133 35.6047 170.01 35.6665 169.927 35.7282C169.845 35.7901 169.804 35.8931 169.783 36.0166C169.763 36.1402 169.743 36.2844 169.743 36.4698V38.6941C169.743 38.9619 169.783 39.1884 169.845 39.312C169.927 39.4562 170.072 39.5385 170.277 39.5798V39.9299H168.282V39.5798C168.508 39.5592 168.652 39.4768 168.714 39.3326C168.796 39.1884 168.816 38.9825 168.816 38.6941V37.7673H166.637V38.6941C166.637 38.9619 166.678 39.1884 166.739 39.3326C166.801 39.4768 166.966 39.5592 167.192 39.5798V39.9299H165.258Z" fill="#DDDDDD"/>
<path id="Vector_29" d="M175.461 39.4563L175.542 39.6005C175.337 39.8888 175.07 40.033 174.761 40.033C174.35 40.033 174.083 39.8064 173.959 39.3533H173.938C173.506 39.8064 173.033 40.033 172.498 40.033C172.026 40.033 171.655 39.9094 171.429 39.6417C171.203 39.3946 171.08 39.0856 171.08 38.7354C171.08 38.3236 171.203 37.994 171.449 37.7468C171.696 37.4997 172.046 37.3143 172.478 37.2113C172.91 37.1084 173.363 37.026 173.835 37.0054C173.835 36.5111 173.774 36.1403 173.671 35.8726C173.547 35.6254 173.321 35.5018 172.93 35.5018C172.581 35.5018 172.375 35.6872 172.293 36.058C172.231 36.3051 172.087 36.4287 171.861 36.4287C171.593 36.4287 171.47 36.3051 171.47 36.058C171.47 35.8108 171.614 35.6048 171.923 35.4194C172.231 35.2341 172.601 35.1311 173.033 35.1311C173.774 35.1311 174.247 35.3371 174.432 35.7284C174.617 36.1197 174.72 36.614 174.72 37.232V38.7767C174.72 39.1474 174.803 39.374 174.946 39.4769C175.132 39.5387 175.296 39.5387 175.461 39.4563ZM173.856 37.4173C173.218 37.4379 172.766 37.5821 172.478 37.8292C172.19 38.0764 172.046 38.3647 172.046 38.7148C172.046 38.962 172.128 39.1474 172.293 39.2916C172.457 39.4357 172.663 39.5181 172.91 39.5181C173.301 39.5181 173.568 39.3739 173.692 39.0856C173.815 38.7973 173.876 38.3853 173.876 37.8498V37.4173H173.856Z" fill="#DDDDDD"/>
<path id="Vector_30" d="M28.9059 0.756454C26.705 1.18897 24.7715 2.19819 23.126 3.7841C24.1133 4.8139 24.8333 6.02908 25.2446 7.42966C25.4914 8.08872 25.656 8.789 25.7383 9.50983C25.8 10.1895 25.8411 10.9104 25.8411 11.6313C25.7588 15.7299 24.2367 19.0871 21.2542 21.744C18.3745 24.4421 15.0629 25.8015 11.3193 25.8426C10.0235 25.8426 8.95389 25.7809 8.13111 25.6367C7.32894 25.5337 6.56788 25.3895 5.86853 25.2247C5.27203 25.3277 4.71666 25.4102 4.20244 25.4719C3.68821 25.5749 2.98886 25.6367 2.12496 25.6367C1.05537 25.6367 0.5 25.4101 0.5 24.9364C0.520569 24.4421 0.931951 24.2156 1.73415 24.2362C2.24837 24.2362 2.80374 24.2979 3.35911 24.4215C3.93504 24.5451 4.7578 24.7099 5.8274 24.9158C7.47294 24.4009 8.93334 23.3093 10.2497 21.6616C11.5662 19.9727 12.8209 18.0367 13.9933 15.8535C15.1864 13.6497 16.4411 11.4665 17.778 9.28332C19.0944 7.12069 20.6166 5.26702 22.3444 3.7429C21.4187 2.98084 20.3903 2.42475 19.3001 2.07461C18.21 1.76567 17.1815 1.6009 16.2148 1.6009C12.5946 1.64209 9.42697 2.81607 6.71186 5.12285C3.8939 7.42959 2.45406 10.4161 2.39236 14.1028C2.37179 15.5651 2.68033 16.7803 3.2974 17.7895C3.6265 18.2633 4.05846 18.634 4.57269 18.9429C5.08692 19.2519 5.72455 19.4166 6.50617 19.4166C8.50134 19.396 10.1057 18.4898 11.2988 16.7185C12.4918 14.9884 13.0883 12.9082 13.1089 10.4778V9.32447H13.4996V10.3131C13.4791 13.1348 12.7797 15.421 11.4222 17.1923C10.0646 19.0047 8.25456 19.9316 6.03308 19.9521C4.40813 19.9316 3.17398 19.3343 2.35122 18.1809C1.52845 17.048 1.13765 15.6681 1.13765 14.041C1.17879 11.0958 2.61862 8.25347 5.45715 5.55537C8.25456 2.75428 11.813 1.31255 16.1531 1.23017C18.7036 1.25076 20.884 1.99222 22.7146 3.47515C24.5247 1.95103 26.5816 0.983012 28.8442 0.550491L28.9059 0.756454ZM10.764 25.4307C13.0472 25.4101 15.0423 24.8952 16.7495 23.886C18.4362 22.8768 19.835 21.5792 20.9457 19.9727C22.0975 18.3662 22.9408 16.6156 23.4962 14.7413C24.031 12.867 24.2984 11.0134 24.2984 9.22148C24.2984 8.29469 24.1956 7.38843 23.9693 6.5028C23.7225 5.59657 23.3111 4.8551 22.7763 4.25781C21.5011 5.82312 20.308 7.63556 19.2179 9.7158C18.1072 11.7754 16.9964 13.835 15.8445 15.9153C14.6927 17.9749 13.3763 19.808 11.8747 21.4144C10.3321 23.0622 8.46026 24.2773 6.27992 25.06V25.1217C7.57579 25.3277 9.07727 25.4307 10.764 25.4307Z" fill="#DDDDDD"/>
<path id="Vector_31" d="M33.6573 13.7316L29.5229 19.9311L29.5846 19.9928C31.0862 18.098 33.1637 16.162 35.7759 14.1641C35.8788 13.9375 36.0022 13.7522 36.1462 13.608C36.2902 13.5051 36.537 13.4432 36.8867 13.4432C37.3187 13.4432 37.73 13.4638 38.1003 13.5051C37.73 13.8964 37.3803 14.3495 37.0718 14.885C36.7016 15.4205 36.5164 16.0384 36.5164 16.7181C36.5576 17.8097 36.9895 18.3657 37.8123 18.3657C38.4705 18.3451 39.1081 18.098 39.7046 17.6655C40.26 17.233 40.7536 16.821 41.165 16.4091L41.3502 16.5533C40.8976 17.027 40.3629 17.4801 39.7458 17.9538C39.0876 18.4687 38.3471 18.7365 37.5243 18.7571C36.0228 18.7365 35.2617 17.9127 35.2206 16.265C35.2206 15.7294 35.344 15.2557 35.5702 14.8232L35.5086 14.7614C33.7191 16.0384 31.5799 18.0774 29.1322 20.8373C28.1654 21.9289 27.2809 23.4118 26.4787 25.2655H24.2984C26.6638 21.4346 29.1115 17.5831 31.6621 13.711H33.6573V13.7316Z" fill="#DDDDDD"/>
<path id="Vector_32" d="M36.6193 22.7939C37.3804 22.8558 37.7712 23.2676 37.8124 24.0298C37.8124 24.3593 37.7095 24.6476 37.4833 24.8742C37.257 25.1419 36.969 25.2861 36.6193 25.2861C36.2903 25.2861 36.0229 25.1419 35.8172 24.8742C35.5497 24.6476 35.4263 24.3799 35.4263 24.0298C35.4263 23.659 35.5497 23.3706 35.8172 23.1235C36.0229 22.8969 36.2903 22.7939 36.6193 22.7939Z" fill="#DDDDDD"/>
<path id="Vector_33" d="M82.3649 0.755965C80.1637 1.18849 78.2304 2.1977 76.585 3.78361C77.5723 4.81342 78.2923 6.0286 78.7244 7.42916C78.971 8.08822 79.1352 8.78851 79.2177 9.50933C79.2795 10.189 79.3207 10.9099 79.3207 11.6308C79.2383 15.7294 77.7165 19.0866 74.7335 21.7435C71.8542 24.4416 68.5424 25.801 64.7989 25.8421C63.503 25.8421 62.4334 25.7804 61.6107 25.6362C60.8085 25.5332 60.0474 25.389 59.3481 25.2243C58.7515 25.3272 58.1962 25.4097 57.682 25.4714C57.1678 25.5744 56.4684 25.6362 55.6045 25.6362C54.5349 25.6362 53.9796 25.4097 53.9796 24.9359C54.0001 24.4416 54.4115 24.2151 55.2137 24.2357C55.7279 24.2357 56.2627 24.2974 56.8387 24.421C57.4146 24.5446 58.2373 24.7094 59.3069 24.9153C60.9524 24.4004 62.4128 23.3088 63.7293 21.6611C65.0457 19.9722 66.3004 18.0362 67.4728 15.853C68.6658 13.6492 69.9209 11.466 71.2578 9.28282C72.5742 7.1202 74.0959 5.26653 75.8238 3.74241C74.8984 2.98035 73.8699 2.42426 72.7796 2.07412C71.6893 1.76518 70.6608 1.60041 69.6942 1.60041C66.0742 1.6416 62.9065 2.81558 60.1914 5.12236C57.3734 7.42916 55.9336 10.4156 55.8719 14.1023C55.8513 15.5646 56.1599 16.7798 56.7769 17.7891C57.1061 18.2628 57.538 18.6335 58.0522 18.9424C58.5665 19.2514 59.2246 19.4161 59.9857 19.4161C61.9809 19.3955 63.5853 18.4893 64.7783 16.7181C65.9713 14.9879 66.5678 12.9078 66.5884 10.4773V9.32397H66.9792V10.3126C66.9587 13.1343 66.2593 15.4205 64.9017 17.1918C63.5442 19.0042 61.7341 19.9311 59.5126 19.9516C57.8877 19.9311 56.6535 19.3338 55.8307 18.1804C55.008 17.0476 54.6172 15.6676 54.6172 14.0405C54.6583 11.0953 56.0981 8.25297 58.9367 5.55488C61.734 2.7538 65.2925 1.31206 69.6323 1.22968C72.1833 1.25027 74.3632 1.99173 76.1941 3.47467C78.0044 1.95055 80.0613 0.982523 82.3237 0.550003L82.3649 0.755965ZM64.2229 25.4302C66.5061 25.4097 68.5013 24.8947 70.2087 23.8855C71.8954 22.8763 73.2942 21.5787 74.4044 19.9722C75.5565 18.3657 76.3995 16.6151 76.9347 14.7408C77.4692 12.8665 77.7371 11.0129 77.7371 9.22099C77.7371 8.29419 77.6341 7.38795 77.4074 6.50231C77.1607 5.59608 76.7492 4.85461 76.2147 4.25732C74.9396 5.82263 73.7462 7.63506 72.6559 9.7153C71.5457 11.7749 70.4348 13.8346 69.2826 15.9148C68.1311 17.9744 66.8147 19.8075 65.3131 21.414C63.7704 23.0617 61.8987 24.2768 59.7183 25.0595V25.1213C61.0142 25.3272 62.5157 25.4302 64.2229 25.4302Z" fill="#DDDDDD"/>
<path id="Vector_34" d="M87.4249 13.7316C85.6558 16.1414 84.1547 18.2628 82.8789 20.0547C81.5831 21.8671 80.925 23.1647 80.9044 23.9679C80.925 24.6681 81.2334 25.0183 81.8504 25.0183C82.4886 25.0183 83.2079 24.73 83.9692 24.1327C84.7304 23.5766 85.471 22.9175 86.2116 22.1348C87.7746 20.4254 88.8237 19.1278 89.3788 18.2215L92.2382 13.7316H94.4799C92.1557 16.9446 90.5103 19.3131 89.5437 20.8578C88.577 22.4026 88.0831 23.4942 88.1037 24.1738C88.1037 24.4416 88.1861 24.6681 88.3503 24.8535C88.5152 25.0595 88.7206 25.1625 88.9673 25.1625C89.3376 25.1625 89.7285 25.0389 90.1194 24.8124C90.5103 24.627 90.9218 24.3798 91.3533 24.0503C92.2588 23.3912 93.1636 22.5674 94.0485 21.5994C95.9611 19.4367 97.3187 17.7067 98.1823 16.4091L98.4908 16.5327C97.6272 17.8714 96.249 19.6427 94.3157 21.8671C93.3896 22.8763 92.4436 23.7207 91.4976 24.421C90.5515 25.1625 89.646 25.5332 88.8031 25.5538C88.2273 25.5332 87.754 25.3478 87.3837 25.0389C87.0134 24.7094 86.8286 24.2357 86.8286 23.659C86.8286 23.2058 86.911 22.7733 87.0546 22.3408C87.1576 21.9288 87.2607 21.6817 87.3424 21.5787L87.2806 21.517C86.3758 22.6085 85.4092 23.556 84.4013 24.3387C83.3728 25.1419 82.365 25.5538 81.3365 25.5744C80.0408 25.5126 79.3826 24.9565 79.3826 23.9267C79.4032 22.8351 79.9583 21.4964 81.0486 19.9311C82.0977 18.3657 83.5171 16.3061 85.3061 13.7728H87.4249V13.7316Z" fill="#DDDDDD"/>
<path id="Vector_35" d="M116.9 2.03291C114.103 6.48169 111.203 10.951 108.2 15.441C106.801 17.6036 105.649 19.4573 104.744 21.0226C103.798 22.5879 103.325 23.7001 103.325 24.3592C103.325 24.8741 103.571 25.1418 104.045 25.1625C105.094 25.1831 106.575 24.2562 108.446 22.3614C110.257 20.5489 111.778 18.5716 113.074 16.4296L113.342 16.5738C112.375 18.3039 110.915 20.2399 108.94 22.3819C108.056 23.3088 107.213 24.0502 106.369 24.6269C105.505 25.2036 104.723 25.5126 103.983 25.5332C102.563 25.492 101.885 24.9565 101.905 23.9267C101.905 23.4736 102.008 23.0616 102.193 22.6497C102.337 22.2584 102.502 21.9288 102.667 21.6199L102.605 21.5787C101.905 22.4643 101.083 23.3088 100.137 24.1326C99.6635 24.5445 99.1696 24.8741 98.6351 25.1212C98.1006 25.389 97.5241 25.5332 96.9278 25.5538C96.146 25.5332 95.5702 25.2654 95.1587 24.7917C94.7266 24.3386 94.5005 23.7825 94.5005 23.0822C94.5212 22.1142 94.8502 21.0844 95.4878 19.9516C96.1047 18.86 96.8866 17.8096 97.8532 16.8416C98.8199 15.853 99.8483 15.0497 100.939 14.4112C102.008 13.7933 103.016 13.4844 103.962 13.4844C104.703 13.4844 105.279 13.6903 105.669 14.1229C106.06 14.576 106.246 15.1527 106.225 15.8736H106.328L114.72 2.0741H116.9V2.03291ZM105.34 15.8736C105.34 15.2969 105.258 14.8232 105.114 14.4524C104.929 14.0611 104.497 13.8757 103.86 13.8345C103.181 13.8552 102.44 14.1847 101.617 14.8026C100.774 15.4616 99.972 16.2855 99.1696 17.2947C98.409 18.2627 97.7708 19.2513 97.2775 20.2812C96.743 21.3316 96.4957 22.2584 96.4957 23.0822C96.4957 23.5559 96.5987 23.9473 96.7835 24.2356C96.9278 24.5652 97.2363 24.7299 97.7096 24.7299C98.3266 24.7299 99.0672 24.3798 99.8896 23.7001C100.754 23.0616 101.597 22.2584 102.44 21.2903C103.283 20.3223 103.962 19.3338 104.518 18.3245C105.032 17.3977 105.32 16.5532 105.34 15.8736Z" fill="#DDDDDD"/>
<path id="Vector_36" d="M117.209 13.7316C114.864 17.1712 113.198 19.6633 112.211 21.1874C111.182 22.7115 110.689 23.7414 110.709 24.2974C110.689 24.8741 110.915 25.1625 111.388 25.1625C112.046 25.1625 112.848 24.8124 113.794 24.1121C114.72 23.453 115.666 22.6291 116.592 21.6611C118.607 19.5397 120.006 17.8096 120.767 16.4091L121.035 16.5945C120.151 18.1392 118.69 19.9517 116.674 22.0524C115.728 23.0205 114.762 23.8443 113.815 24.5034C112.848 25.1625 111.943 25.5126 111.141 25.5332C110.565 25.5126 110.133 25.3478 109.866 25.0389C109.578 24.73 109.413 24.3593 109.413 23.9267C109.413 23.0205 109.866 21.8671 110.75 20.4665C111.635 19.0454 113.095 16.8004 115.091 13.7316H117.209ZM119.101 7.49093C119.41 7.49093 119.657 7.59391 119.842 7.77927C120.027 8.00585 120.13 8.27359 120.13 8.58254C120.109 9.30343 119.76 9.67415 119.101 9.69476C118.423 9.67415 118.094 9.30343 118.073 8.58254C118.073 8.27359 118.176 8.00585 118.402 7.77927C118.546 7.5733 118.793 7.49093 119.101 7.49093Z" fill="#DDDDDD"/>
<path id="Vector_37" d="M131.751 2.03291C128.213 7.84103 124.573 13.4638 120.809 18.9424L120.871 19.0042C122.001 17.6448 123.154 16.3885 124.367 15.235C125.519 14.0817 126.794 13.4844 128.193 13.4432C128.913 13.4638 129.447 13.6286 129.756 13.9581C130.064 14.2876 130.229 14.7407 130.229 15.2969C130.229 15.8323 130.085 16.306 129.776 16.718C129.468 17.1299 129.056 17.48 128.543 17.789C127.473 18.4069 126.424 18.7776 125.375 18.9424V19.0042C126.012 19.3749 126.341 20.0134 126.362 20.9196C126.341 21.4551 126.177 22.0318 125.889 22.6291C125.56 23.2882 125.375 23.9061 125.354 24.5239C125.354 24.9565 125.54 25.1625 125.889 25.1625C127.185 25.1625 128.892 24.1121 130.99 21.9906C132.327 20.6725 133.828 18.8188 135.475 16.4503L135.762 16.6562C134.878 18.0568 133.335 19.9722 131.134 22.3614C129.056 24.4622 127.226 25.5126 125.683 25.5332C124.326 25.5332 123.626 24.9359 123.606 23.7619C123.606 23.4324 123.688 23.0616 123.853 22.6909C123.976 22.3202 124.141 21.9495 124.305 21.5581C124.511 21.1668 124.675 20.8166 124.82 20.5077C124.963 20.1988 125.025 19.9516 125.025 19.7456C125.004 19.3131 124.82 19.1072 124.49 19.1072C124.284 19.1072 124.058 19.1483 123.77 19.2307C123.462 19.3337 123.133 19.3749 122.783 19.3749C122.475 19.3749 122.31 19.2719 122.31 19.066C122.289 18.9012 122.454 18.7982 122.804 18.7776C123.05 18.7982 123.4 18.8188 123.874 18.8394C125.21 18.8394 126.321 18.5305 127.185 17.8714C128.028 17.2535 128.481 16.409 128.501 15.338C128.439 14.4112 128.069 13.9581 127.37 13.9581C126.753 13.9787 126.012 14.3494 125.149 15.0703C124.244 15.8117 123.297 16.7592 122.33 17.9332C121.364 19.0866 120.438 20.3223 119.554 21.5993C118.669 22.8969 117.929 24.1326 117.353 25.2654H115.193C120.027 17.6036 124.881 9.90066 129.756 2.11529L131.751 2.03291Z" fill="#DDDDDD"/>
<path id="Vector_38" d="M150.489 16.8004C149.359 18.098 148.145 18.7571 146.828 18.7777C146.253 18.7777 145.738 18.6335 145.307 18.3451C144.854 18.0774 144.504 17.7685 144.257 17.3771H144.196C143.681 19.1896 142.571 20.9608 140.884 22.7115C140.061 23.5354 139.177 24.2151 138.21 24.73C137.243 25.2655 136.235 25.5333 135.227 25.5744C134.322 25.5538 133.623 25.2655 133.15 24.7094C132.656 24.1533 132.41 23.4118 132.41 22.485C132.41 21.7023 132.677 20.7961 133.212 19.7663C133.706 18.7777 134.384 17.8097 135.248 16.8416C136.112 15.8736 137.079 15.0909 138.169 14.4731C139.218 13.8346 140.328 13.5051 141.481 13.4845C142.365 13.4845 143.064 13.7522 143.558 14.2671C144.051 14.782 144.319 15.4822 144.339 16.3885C144.38 16.9034 144.628 17.3771 145.059 17.8097C145.491 18.2628 146.067 18.4893 146.787 18.4893C148.103 18.4687 149.256 17.8508 150.222 16.6768L150.489 16.8004ZM134.138 23.2677C134.138 24.5034 134.569 25.1419 135.433 25.1625C136.318 25.1625 137.182 24.7917 138.045 24.0709C138.868 23.4324 139.629 22.588 140.308 21.5581C141.789 19.375 142.55 17.3771 142.591 15.5235C142.591 14.4525 142.118 13.8964 141.193 13.8552C140.493 13.8552 139.732 14.1641 138.93 14.8026C138.148 15.4205 137.408 16.2444 136.647 17.2329C135.927 18.201 135.33 19.2102 134.857 20.2812C134.384 21.3316 134.138 22.3202 134.138 23.2677Z" fill="#DDDDDD"/>
<path id="Vector_39" d="M154.419 13.7316C153.472 14.9262 152.32 16.5121 151.025 18.4893C150.428 19.4367 149.914 20.3429 149.502 21.2492C149.049 22.1554 148.823 22.9587 148.823 23.6795C148.823 24.0915 148.947 24.421 149.214 24.7094C149.461 24.9977 149.852 25.1625 150.387 25.1625C151.251 25.1625 152.135 24.7917 153.04 24.0708C153.904 23.4118 154.727 22.5674 155.488 21.5581C156.249 20.5283 156.846 19.4779 157.298 18.4481C157.73 17.4183 157.956 16.5326 157.977 15.75C157.977 15.5646 157.935 15.3792 157.854 15.1527C157.771 14.9468 157.73 14.7408 157.73 14.5142C157.73 14.2259 157.812 13.9787 157.977 13.7728C158.142 13.5462 158.347 13.4226 158.594 13.4226C158.902 13.4226 159.17 13.5874 159.396 13.9375C159.622 14.3289 159.725 14.9468 159.725 15.8324C159.705 16.3061 159.663 16.7386 159.601 17.1299C159.828 17.4801 160.198 17.7478 160.671 17.9538C161.103 18.1803 161.535 18.2833 161.967 18.2833C162.564 18.2833 163.181 18.1185 163.818 17.7684C164.415 17.4801 164.929 17.0064 165.34 16.3267L165.608 16.5121C165.279 17.1505 164.785 17.6655 164.106 18.0568C163.407 18.4893 162.666 18.6952 161.926 18.6952C161.474 18.6952 161.021 18.5922 160.589 18.3657C160.137 18.1803 159.746 17.9332 159.458 17.6655C158.862 19.4985 157.648 21.2492 155.817 22.8969C154.932 23.6795 154.007 24.2974 153.02 24.7711C152.033 25.2654 151.045 25.5126 150.099 25.5332C148.227 25.5538 147.302 24.6064 147.281 22.7115C147.281 22.0318 147.486 21.2698 147.919 20.4665C148.289 19.6839 148.762 18.8806 149.338 18.0774C149.893 17.2741 150.448 16.4709 150.983 15.6882C151.518 14.9468 151.971 14.3082 152.32 13.711H154.419V13.7316Z" fill="#DDDDDD"/>
<path id="Vector_40" d="M174.473 13.7316H176.592C174.905 16.0795 173.466 18.2009 172.252 20.1164C170.977 22.0318 170.339 23.4324 170.318 24.2768C170.318 24.8535 170.606 25.1418 171.203 25.1418C171.676 25.1418 172.293 24.8947 172.992 24.4004C173.692 23.9472 174.473 23.3294 175.296 22.5055C177.044 20.8578 178.731 18.7776 180.315 16.2855L180.5 16.3473C179.286 18.3245 177.764 20.3224 175.954 22.3202C175.049 23.247 174.186 24.0091 173.342 24.6064C172.437 25.2037 171.614 25.5126 170.853 25.5332C169.64 25.492 169.023 24.9359 169.023 23.8855C169.043 23.2676 169.187 22.6497 169.454 22.0318L169.393 21.9906C168.817 22.6909 168.015 23.4324 167.007 24.2151C165.958 25.0389 164.95 25.4714 163.983 25.5126C163.201 25.492 162.646 25.2242 162.337 24.7505C161.988 24.2562 161.823 23.6795 161.823 23.0205C161.823 22.0524 162.111 21.0226 162.708 19.9104C163.243 18.8394 163.963 17.8096 164.826 16.821C165.731 15.8324 166.678 15.0291 167.727 14.4112C168.735 13.7728 169.681 13.4432 170.606 13.4226C171.47 13.4432 172.149 13.6698 172.601 14.0817C173.013 14.5348 173.259 15.0498 173.363 15.647H173.424L174.473 13.7316ZM163.736 23.1441C163.736 24.1944 164.127 24.73 164.929 24.7505C165.526 24.7505 166.225 24.4416 167.048 23.8443C167.85 23.247 168.673 22.4849 169.475 21.5581C170.298 20.6313 170.977 19.6221 171.511 18.5099C172.026 17.4389 172.272 16.4091 172.293 15.4205C172.252 14.3906 171.758 13.8552 170.812 13.8345C170.174 13.8345 169.454 14.1229 168.632 14.679C167.809 15.2557 167.027 16.0178 166.287 16.9652C165.567 17.892 164.95 18.8806 164.477 19.931C163.983 21.0432 163.736 22.1142 163.736 23.1441Z" fill="#DDDDDD"/>
</g>
<defs>
<clipPath id="clip0_1_713">
<rect width="180" height="41.9084" fill="white" transform="translate(0.5 0.550003)"/>
</clipPath>
</defs>
</svg>
