<svg width="199" height="76" viewBox="0 0 199 76" fill="none" xmlns="http://www.w3.org/2000/svg">
<g id="1.svg" clip-path="url(#clip0_1_24)">
<path id="Vector" d="M138.331 60.4964C138.331 60.4964 165.991 19.0718 174.615 14.2627C175.41 13.7652 176.472 14.4617 175.809 15.8878C173.52 20.7964 165.892 28.3584 165.892 28.3584C165.892 28.3584 156.572 38.4408 146.224 44.9083C138.396 49.9495 139.458 45.5384 142.012 43.5153C142.078 43.4158 141.946 43.2831 141.846 43.3826C140.42 44.5103 137.004 46.9978 134.848 47.0641C132.426 47.1304 134.848 44.4108 135.412 43.7806C135.412 43.7806 135.412 43.7475 135.379 43.7475C134.384 44.4108 128.58 48.1586 125.86 48.2249C123.672 48.2581 125.76 45.5384 127.12 43.9464C127.253 43.7806 127.054 43.5484 126.888 43.6812C120.885 47.3957 92.8556 67.8319 97.6687 70.2473C102.482 72.6626 114.243 52.6937 114.243 52.6937L120.255 44.7757C120.255 44.7757 120.255 44.7425 120.222 44.7425C113.754 49.6511 111.499 48.9545 111.499 48.9545C107.818 47.4289 116.607 42.6862 114.384 43.7806C110.537 46.5003 63.7728 65.4713 72.2966 67.2955C76.8372 67.8916 103.207 49.3194 103.207 49.3194C110.139 43.4821 117.988 33.8976 114.119 22.1563C110.251 10.4149 85.8615 14.1632 72.6613 19.5693C72.6613 19.5693 26.9915 35.4559 26.1624 28.4247C25.6649 23.5824 52.3969 18.0768 77.968 19.2707C85.8283 19.6356 91.5662 20.498 94.8828 14.9591" stroke="#DDDDDD" stroke-width="1.19277" stroke-miterlimit="10" stroke-linecap="round" stroke-linejoin="round"/>
<path id="Vector_2" d="M20.7771 74.4518H188.958" stroke="white" stroke-width="0.477108" stroke-linecap="round" stroke-linejoin="round"/>
<path id="Vector_3" d="M148.247 46.1024L155.909 43.2501C155.909 43.2501 151.762 46.3345 154.085 47.2632C156.373 48.1917 160.884 44.7756 160.884 44.7756M160.884 44.7756C160.884 44.7756 159.557 47.5616 163.106 46.6662C165.262 45.7375 166.688 43.9466 167.119 43.0842C167.451 42.3877 167.517 38.3746 160.884 44.7756Z" stroke="#DDDDDD" stroke-width="1.19277" stroke-miterlimit="10" stroke-linecap="round" stroke-linejoin="round"/>
<path id="Vector_4" d="M161.679 46.832C161.679 46.832 163.305 47.5284 167.982 44.2118C169.01 43.6812 169.042 45.3726 170.204 45.2732C171.364 45.1737 185.791 44.5435 192.06 46.8651C196.438 48.4903 198.428 50.5135 196.67 53.4984" stroke="#DDDDDD" stroke-width="1.19277" stroke-miterlimit="10" stroke-linecap="round" stroke-linejoin="round"/>
<path id="Vector_5" d="M77.4707 52.5697C77.4707 52.5697 85.7291 35.4891 90.9362 31.5423C78.8636 42.4872 44.2381 55.6542 44.2381 55.6542C44.2381 55.6542 6.46387 72.0662 1.78535 57.3125C-2.89317 42.5588 47.621 27.4629 61.1861 47.6612C61.1861 47.6612 63.6404 50.3144 63.5077 56.0854C63.4745 57.9426 62.977 60.3307 62.778 61.4252C62.7449 61.5578 62.9107 61.591 62.977 61.5247C66.6253 56.0522 101.185 4.94304 104.733 1.69275" stroke="#DDDDDD" stroke-width="1.19277" stroke-miterlimit="10" stroke-linecap="round" stroke-linejoin="round"/>
<path id="Vector_6" d="M87.6859 25.274C87.6859 25.274 78.2999 34.5937 74.4526 32.8359C68.8476 30.2489 108.282 14.1301 119.293 8.98934C130.304 3.84858 132.394 7.92802 132.394 7.92802" stroke="#DDDDDD" stroke-width="1.19277" stroke-miterlimit="10" stroke-linecap="round" stroke-linejoin="round"/>
</g>
<defs>
<clipPath id="clip0_1_24">
<rect width="198" height="75.1446" fill="white" transform="translate(0.5 0.5)"/>
</clipPath>
</defs>
</svg>
