<?xml version="1.0" standalone="no"?>
<!DOCTYPE svg PUBLIC "-//W3C//DTD SVG 20010904//EN"
 "http://www.w3.org/TR/2001/REC-SVG-20010904/DTD/svg10.dtd">
<svg version="1.0" xmlns="http://www.w3.org/2000/svg"
 width="866.000000pt" height="866.000000pt" viewBox="0 0 866.000000 866.000000"
 preserveAspectRatio="xMidYMid meet">
<metadata>
Created by potrace 1.14, written by Peter Selinger 2001-2017
</metadata>
<g transform="translate(0.000000,866.000000) scale(0.100000,-0.100000)"
fill="#000000" stroke="none">
<path d="M4197 8464 c-1 -1 -56 -4 -122 -8 -66 -4 -133 -9 -150 -10 -16 -2
-60 -6 -96 -10 -36 -4 -76 -8 -90 -11 -13 -2 -42 -6 -64 -10 -22 -3 -56 -8
-75 -11 -19 -3 -80 -14 -135 -26 -690 -138 -1360 -458 -1895 -902 -138 -115
-158 -134 -315 -291 -681 -682 -1106 -1557 -1219 -2515 -4 -31 -10 -96 -21
-230 -5 -61 -6 -453 0 -515 2 -27 7 -88 10 -135 6 -75 21 -197 40 -325 4 -22
22 -110 40 -195 173 -797 563 -1513 1139 -2095 292 -293 574 -512 911 -707
164 -95 523 -268 554 -268 8 0 122 89 141 109 3 4 46 42 95 86 211 187 383
362 548 555 40 47 80 94 90 105 45 48 193 252 262 360 192 300 288 572 281
790 -4 117 -9 142 -42 215 -50 109 -139 170 -249 170 -117 0 -195 -39 -239
-120 -49 -90 -33 -205 37 -267 63 -55 161 -52 211 8 36 43 33 64 -19 117 -25
25 -45 48 -45 51 0 23 34 51 63 51 39 -1 56 -13 91 -64 55 -81 18 -184 -85
-237 -72 -37 -168 -27 -244 24 -125 85 -133 268 -16 383 87 86 193 108 373 78
58 -9 83 1 103 43 17 36 17 73 -1 183 -11 70 -66 218 -128 345 -173 359 -405
589 -642 638 -63 13 -198 15 -250 3 -265 -58 -474 -245 -533 -476 -43 -172 11
-358 139 -473 108 -98 250 -133 395 -100 152 35 254 153 260 302 5 113 -46
223 -129 281 -123 84 -296 39 -351 -92 -24 -59 -19 -112 18 -179 27 -51 30
-61 17 -69 -19 -12 -49 -3 -77 23 -76 69 -42 260 64 357 76 71 148 89 255 64
152 -36 261 -164 272 -319 6 -97 -43 -233 -113 -312 -98 -112 -261 -160 -432
-127 -232 44 -407 276 -411 548 -2 91 8 143 43 240 25 68 27 77 12 71 -79 -33
-140 -45 -240 -46 -197 -1 -381 104 -498 286 -41 64 -84 182 -92 254 -3 31 -7
62 -8 70 -4 29 16 128 37 181 71 182 247 295 446 285 42 -2 84 -5 92 -8 73
-19 102 -31 143 -57 119 -75 177 -174 183 -308 5 -111 -30 -197 -109 -268 -92
-83 -236 -105 -344 -53 -49 24 -109 87 -130 138 -35 83 -10 203 55 265 86 81
255 58 292 -39 26 -69 -7 -147 -70 -165 -44 -12 -66 5 -24 19 84 30 102 65 69
135 -21 44 -60 60 -130 54 -87 -7 -143 -60 -152 -142 -15 -126 71 -233 194
-241 97 -7 199 60 250 163 24 50 28 69 28 147 0 97 -9 124 -68 197 -77 96
-235 148 -372 123 -158 -30 -293 -173 -330 -350 -25 -121 1 -287 57 -370 34
-48 128 -135 192 -177 231 -149 561 -97 809 128 41 38 120 89 209 134 37 19
64 38 60 41 -4 4 -29 14 -56 23 -117 38 -196 112 -241 224 -80 199 8 436 181
487 76 22 190 17 255 -12 57 -26 120 -88 151 -150 34 -69 33 -190 -1 -250 -84
-147 -320 -150 -382 -5 -16 37 -19 59 -15 101 8 66 19 87 59 111 58 36 136 17
155 -38 15 -44 -1 -58 -20 -18 -45 92 -177 23 -162 -85 10 -68 67 -119 142
-127 147 -14 246 105 211 253 -40 168 -190 248 -365 194 -231 -71 -278 -405
-82 -588 76 -71 163 -100 343 -116 93 -8 228 -32 290 -52 56 -18 90 -36 188
-99 37 -24 67 -40 67 -35 0 4 -22 55 -49 112 -65 139 -88 209 -121 367 -30
140 -37 298 -19 427 4 33 10 89 14 125 3 36 12 121 19 190 28 273 7 486 -61
627 -77 157 -255 260 -462 268 -307 11 -523 -186 -523 -476 0 -229 151 -387
370 -390 97 -2 163 23 225 84 151 147 114 368 -72 430 -125 41 -267 -45 -257
-158 5 -57 20 -88 56 -118 42 -36 88 -36 130 0 28 23 31 31 28 67 -3 23 -8 49
-12 59 -13 28 29 21 53 -9 26 -33 28 -100 5 -133 -9 -13 -35 -32 -58 -42 -153
-69 -299 63 -271 247 5 39 16 56 58 98 166 165 446 66 502 -178 42 -184 -111
-388 -320 -427 -233 -43 -479 118 -510 334 -4 26 -11 47 -16 47 -5 0 -9 -4 -9
-8 0 -5 -28 -36 -62 -71 -150 -151 -376 -194 -553 -107 -163 81 -258 237 -254
417 5 203 158 350 360 344 287 -8 410 -378 169 -509 -57 -31 -138 -39 -191
-18 -97 39 -150 156 -110 246 45 103 191 132 236 47 17 -34 20 -100 5 -102
-28 -5 -33 -2 -36 19 -6 34 -34 72 -59 78 -33 8 -83 -21 -92 -54 -10 -41 -6
-61 21 -102 70 -106 226 -91 278 27 22 50 20 95 -6 158 -95 224 -435 172 -500
-77 -69 -264 181 -489 476 -427 140 29 297 159 313 259 3 19 8 53 11 75 14 94
75 211 159 303 l36 40 -45 0 c-108 0 -249 65 -339 155 -212 212 -194 553 36
711 225 155 505 79 600 -162 62 -157 -29 -342 -194 -394 -61 -20 -163 -18
-204 4 -120 64 -167 213 -98 312 40 56 101 97 156 103 62 7 90 -1 126 -38 33
-32 40 -73 21 -110 -21 -39 -70 -16 -70 32 0 39 -23 58 -66 54 -43 -4 -80 -29
-111 -75 -67 -97 24 -230 157 -230 117 0 230 118 230 240 0 62 -19 109 -66
167 -88 107 -229 136 -357 73 -75 -36 -117 -73 -160 -142 -47 -74 -61 -132
-54 -231 7 -119 36 -188 111 -263 134 -134 285 -171 476 -119 120 33 267 41
360 19 36 -8 112 -35 169 -60 57 -24 106 -42 109 -40 10 11 -74 118 -147 188
-146 140 -186 214 -186 348 0 76 4 93 33 152 70 143 208 215 358 187 64 -12
130 -47 166 -88 125 -142 57 -378 -120 -416 -79 -17 -202 47 -202 104 0 38 6
41 51 26 60 -21 152 -29 178 -15 46 24 65 118 37 185 -28 67 -84 105 -166 112
-99 9 -179 -48 -221 -157 -22 -59 -20 -150 6 -205 11 -22 63 -84 117 -139 112
-112 146 -158 193 -258 l32 -70 18 72 c36 146 116 264 223 328 25 15 86 45
135 67 139 63 155 100 105 252 -59 181 -57 239 14 423 35 90 41 117 42 185 1
115 -29 190 -108 270 -85 85 -166 123 -278 132 -179 14 -331 -88 -363 -243
-19 -92 7 -198 62 -256 81 -84 242 -94 327 -19 25 22 55 83 60 124 5 38 -20
103 -50 129 -56 48 -141 55 -182 14 -38 -38 -33 -82 15 -122 32 -27 36 -34 25
-47 -14 -17 -65 -15 -88 3 -14 13 -32 61 -35 100 -12 128 125 195 266 129 133
-63 163 -247 56 -356 -62 -65 -121 -88 -226 -88 -100 0 -143 16 -213 80 -81
73 -116 208 -88 335 11 48 59 132 98 171 81 80 176 120 288 121 133 1 246 -47
346 -146 74 -74 98 -118 124 -233 12 -48 24 -91 28 -95 4 -4 30 14 57 41 110
105 233 153 390 153 141 -1 247 -43 335 -131 116 -116 167 -295 126 -446 -54
-203 -232 -329 -430 -303 -217 28 -345 247 -251 432 76 149 250 201 373 109
51 -38 75 -95 70 -165 -5 -70 -27 -104 -86 -134 -33 -17 -50 -20 -78 -14 -48
11 -68 31 -59 60 l7 22 26 -25 c42 -39 63 -41 102 -8 32 26 35 34 34 78 -1
123 -131 205 -229 144 -80 -49 -119 -117 -118 -207 2 -138 95 -225 242 -226
154 -1 305 107 342 244 25 96 -1 239 -58 318 -116 158 -325 221 -518 155 -67
-23 -176 -96 -220 -148 -47 -55 -90 -147 -106 -225 -26 -138 7 -327 83 -462
48 -85 77 -117 167 -185 142 -108 209 -221 218 -367 13 -194 -116 -361 -304
-396 -231 -42 -384 71 -385 283 0 49 4 71 17 85 20 22 79 28 90 9 4 -5 9 -45
12 -87 9 -159 51 -204 192 -205 96 -1 140 14 194 67 152 147 77 456 -134 551
-185 83 -455 -12 -538 -190 -47 -103 -58 -281 -27 -465 27 -156 37 -334 22
-359 -4 -5 -3 -12 2 -14 4 -3 32 17 62 45 88 80 120 93 225 93 78 0 98 -4 146
-27 107 -53 178 -150 187 -255 4 -53 1 -70 -22 -117 -49 -100 -152 -166 -259
-166 -62 0 -105 19 -144 63 -70 80 -49 228 39 273 48 25 118 23 156 -5 34 -24
56 -78 39 -98 -13 -17 -25 -8 -41 32 -43 103 -186 61 -186 -55 0 -39 25 -99
51 -123 49 -46 156 -54 226 -18 108 54 147 157 106 277 -22 66 -110 153 -178
177 -156 54 -322 -26 -397 -191 -76 -167 -104 -508 -63 -762 29 -176 123 -399
184 -434 44 -25 117 -25 159 0 43 25 52 55 67 234 16 185 138 442 269 570 111
108 195 152 392 206 148 40 188 59 242 114 55 56 75 102 80 185 5 81 -16 140
-67 191 -104 105 -297 102 -366 -5 -83 -127 8 -288 133 -236 21 9 39 29 57 64
26 52 47 64 63 35 26 -47 -45 -139 -123 -158 -118 -30 -207 44 -208 175 -1 69
39 157 87 194 70 53 195 63 289 23 62 -27 130 -103 153 -170 20 -61 15 -192
-10 -250 -9 -21 -14 -38 -10 -38 31 0 448 196 534 251 192 124 312 345 311
573 0 45 -5 96 -10 114 -5 17 -8 32 -6 32 5 0 -30 101 -51 147 -71 153 -231
275 -393 303 -254 43 -474 -83 -551 -314 -69 -208 2 -388 185 -472 143 -66
308 -45 402 52 106 109 113 298 15 402 -49 51 -93 73 -161 79 -111 10 -204
-70 -215 -183 -5 -51 21 -113 58 -137 32 -22 102 -30 130 -15 59 30 73 94 29
140 -33 34 -10 39 31 7 50 -40 24 -152 -44 -186 -40 -20 -112 -16 -161 10 -33
18 -51 37 -71 76 -105 201 127 400 345 297 227 -108 213 -446 -23 -575 -120
-66 -289 -60 -415 14 -116 68 -208 226 -207 357 1 114 21 184 80 278 166 263
529 320 820 129 17 -11 32 -19 32 -17 0 3 -11 37 -24 76 -32 93 -38 162 -19
232 39 149 142 240 280 246 177 8 304 -112 288 -270 -12 -110 -79 -185 -174
-194 -57 -5 -85 8 -111 51 -26 42 -26 83 0 97 16 8 22 6 34 -12 7 -13 17 -33
21 -45 10 -35 53 -64 84 -57 47 10 68 25 90 64 62 111 -13 267 -147 306 -161
47 -317 -83 -323 -269 -4 -92 17 -139 130 -297 98 -135 115 -183 114 -312 0
-67 3 -95 11 -91 6 2 45 46 86 96 111 136 193 177 353 179 172 2 354 -92 441
-230 56 -88 70 -147 70 -277 0 -108 -2 -126 -26 -176 -62 -135 -173 -205 -319
-201 -174 4 -313 146 -296 303 6 58 25 95 71 141 110 110 281 105 345 -11 37
-68 36 -158 -3 -197 -42 -42 -124 -39 -170 6 -41 40 -24 59 20 20 46 -40 86
-40 126 0 27 28 30 36 26 79 -12 126 -151 192 -264 126 -116 -68 -137 -232
-43 -339 119 -135 335 -133 434 3 53 72 70 133 70 246 0 88 -4 107 -28 159
-51 109 -127 189 -232 241 -80 40 -96 45 -184 49 -168 9 -323 -81 -422 -243
-19 -32 -55 -114 -79 -182 -58 -166 -94 -241 -148 -307 -60 -74 -82 -93 -177
-156 -99 -66 -133 -83 -428 -217 -131 -59 -235 -109 -230 -112 4 -3 55 -15
113 -27 134 -28 228 -67 312 -130 87 -66 147 -139 276 -335 107 -162 176 -242
250 -289 145 -91 357 -97 526 -15 289 141 373 487 170 701 -145 154 -385 167
-524 28 -56 -56 -82 -118 -86 -205 -8 -198 126 -315 290 -254 90 34 145 110
146 202 0 40 -5 53 -29 78 -27 26 -50 34 -91 30 -8 -1 -36 -25 -62 -54 -26
-29 -48 -47 -49 -42 -6 44 -4 60 15 88 51 76 152 75 235 -4 69 -65 69 -195 -1
-287 -120 -161 -385 -132 -480 51 -65 126 -55 257 28 382 45 68 90 106 174
148 59 29 73 32 160 32 85 0 102 -3 160 -31 169 -80 291 -273 291 -460 0 -114
-54 -241 -135 -316 l-40 -38 95 7 c74 4 108 2 154 -11 133 -38 219 -129 251
-263 38 -161 -63 -314 -231 -351 -102 -22 -228 34 -268 120 -55 117 0 258 112
288 100 27 201 -30 201 -113 0 -31 -35 -84 -60 -92 -33 -11 -36 3 -7 33 45 47
35 95 -25 122 -125 56 -240 -91 -173 -220 36 -70 107 -113 185 -114 130 0 234
106 247 253 6 70 -8 126 -47 179 -90 125 -281 177 -423 114 -25 -11 -78 -41
-118 -68 -101 -66 -197 -98 -267 -90 l-54 6 41 -49 c52 -62 108 -179 122 -256
32 -172 -48 -316 -204 -369 -154 -52 -308 17 -343 153 -19 77 7 169 64 227 46
46 114 59 165 33 53 -28 43 -49 -24 -49 -91 0 -149 -52 -151 -134 -3 -152 208
-230 336 -124 142 117 130 325 -27 439 -23 17 -80 49 -127 71 -237 113 -283
141 -337 209 -17 22 -35 39 -39 37 -4 -2 -9 -48 -9 -103 -1 -79 -6 -110 -24
-150 -106 -238 -422 -382 -654 -295 -181 68 -308 277 -285 467 15 130 84 230
194 284 85 42 199 48 296 15 83 -28 121 -58 155 -126 24 -47 28 -67 28 -140 0
-68 -5 -93 -22 -125 -38 -73 -100 -113 -182 -120 -69 -5 -114 10 -149 49 -75
85 -63 216 20 216 32 0 34 -8 14 -64 -47 -136 115 -188 206 -66 42 57 37 172
-12 240 -33 47 -111 82 -189 85 -164 7 -275 -97 -288 -268 -17 -220 140 -392
365 -402 246 -12 443 195 456 479 14 282 -164 536 -439 629 -303 102 -571 33
-735 -188 -107 -145 -206 -420 -235 -650 -8 -60 -8 -210 -1 -245 3 -14 9 -38
12 -55 19 -87 86 -169 168 -206 68 -30 185 -28 294 5 76 23 220 31 294 16 102
-20 184 -60 255 -124 96 -87 136 -180 137 -321 2 -165 -55 -272 -178 -335 -63
-32 -77 -35 -150 -34 -63 0 -92 5 -127 23 -68 32 -120 81 -154 142 -26 46 -30
65 -29 124 0 58 5 77 27 112 80 126 206 171 308 110 65 -38 91 -77 104 -153 6
-41 -30 -112 -73 -141 -63 -42 -172 -8 -172 53 0 26 22 44 28 25 17 -52 84
-66 122 -26 59 62 -12 185 -107 185 -156 0 -224 -225 -101 -336 57 -52 165
-75 244 -52 214 63 273 358 108 534 -178 190 -476 156 -608 -70 -93 -160 -121
-440 -80 -806 8 -67 53 -311 63 -340 5 -14 19 -61 31 -105 57 -201 156 -418
268 -586 147 -219 452 -550 722 -784 133 -115 360 -295 371 -295 5 0 71 27
147 61 367 162 707 375 1037 650 108 91 383 361 455 448 25 29 51 59 57 66 96
100 324 426 447 640 131 226 309 634 362 825 2 8 21 78 42 155 42 151 60 223
67 270 3 17 8 41 11 55 6 26 9 42 18 100 3 19 8 46 10 60 14 80 30 237 42 400
9 143 4 486 -11 629 -19 195 -15 160 -46 346 -92 557 -320 1130 -647 1625 -69
105 -224 316 -269 365 -10 12 -51 59 -92 105 -268 305 -609 595 -957 810 -542
337 -1188 562 -1794 625 -30 4 -71 8 -90 10 -94 12 -533 27 -543 19z m548
-107 c11 -2 52 -8 90 -11 39 -4 81 -8 95 -11 14 -2 41 -7 60 -9 176 -24 453
-89 655 -155 410 -133 809 -339 1165 -600 41 -30 77 -57 80 -60 3 -4 23 -19
44 -36 108 -80 309 -266 456 -422 516 -546 896 -1283 1044 -2028 23 -114 24
-118 32 -172 3 -26 8 -56 10 -67 2 -10 6 -44 10 -75 3 -31 8 -65 10 -76 18
-94 26 -589 12 -780 -10 -135 -35 -330 -63 -480 -107 -583 -372 -1194 -733
-1689 -78 -106 -224 -287 -277 -342 -247 -259 -384 -384 -601 -547 -256 -192
-598 -388 -866 -497 l-57 -23 -48 39 c-442 357 -778 701 -978 999 -154 230
-270 544 -330 889 -25 146 -30 212 -30 391 0 246 15 344 70 460 40 84 99 146
175 183 78 38 190 39 270 1 62 -30 116 -77 152 -135 88 -140 38 -340 -99 -400
-46 -20 -138 -21 -185 -1 -78 33 -119 137 -84 215 23 52 76 86 118 78 58 -11
98 -82 66 -114 -18 -18 -34 -14 -46 12 -16 35 -43 47 -72 33 -36 -18 -49 -51
-38 -95 16 -64 99 -103 183 -88 48 9 119 78 135 133 27 91 -21 201 -114 258
-42 25 -59 30 -115 30 -80 0 -137 -25 -200 -87 -57 -57 -83 -110 -89 -184 -11
-147 99 -295 255 -340 194 -56 390 52 452 250 26 82 23 236 -7 318 -51 140
-160 242 -319 299 -65 24 -236 34 -313 19 -272 -52 -401 -12 -455 141 -37 102
-29 287 20 481 85 336 210 525 395 598 76 30 101 34 210 33 111 -1 220 -27
320 -76 83 -41 195 -150 237 -232 140 -272 40 -609 -204 -685 -152 -47 -324
26 -383 162 -32 73 -33 185 -2 245 39 74 112 113 201 106 98 -8 160 -77 148
-165 -6 -47 -43 -88 -79 -88 -22 0 -22 9 0 92 26 98 -84 151 -173 84 -45 -35
-67 -77 -67 -132 0 -144 106 -254 244 -254 182 0 309 129 310 314 1 137 -60
255 -158 308 -173 93 -403 72 -528 -49 -178 -174 -188 -447 -22 -657 48 -61
65 -77 131 -120 77 -51 138 -68 246 -72 184 -5 365 74 493 217 48 54 113 175
119 222 2 15 5 28 8 29 2 1 33 -14 69 -34 36 -20 99 -51 140 -69 206 -91 280
-163 280 -271 0 -49 -27 -114 -58 -141 -67 -60 -190 -49 -221 20 -28 62 -5 94
75 99 72 4 99 18 114 55 34 81 -59 162 -174 153 -57 -4 -92 -22 -141 -71 -136
-135 -114 -364 44 -464 119 -76 288 -68 413 20 166 116 204 334 98 555 -30 63
-30 66 -8 70 51 10 85 27 178 85 117 73 169 90 250 84 133 -9 240 -110 240
-224 0 -94 -80 -192 -160 -199 -53 -5 -71 1 -106 33 -29 26 -37 42 -41 79 -4
37 -2 49 16 67 11 11 33 21 47 21 l25 0 -20 -26 c-29 -37 -27 -89 4 -119 63
-64 182 4 203 116 21 113 -72 211 -205 215 -79 3 -114 -7 -169 -48 -66 -50
-99 -123 -98 -218 1 -178 125 -293 316 -293 67 0 86 4 140 31 171 86 242 235
203 426 -30 145 -190 291 -343 312 -28 3 -52 8 -52 11 0 2 12 27 26 55 137
271 -33 656 -337 758 -262 89 -559 -96 -610 -381 -42 -238 128 -459 359 -464
151 -4 270 70 329 204 65 147 9 304 -132 370 -126 59 -275 -11 -292 -139 -6
-46 19 -107 51 -121 43 -20 66 -8 136 69 25 28 37 28 45 1 11 -33 -15 -98 -49
-124 -115 -85 -232 -23 -241 127 -9 150 99 261 256 261 123 0 234 -73 290
-190 138 -290 -187 -616 -535 -536 -141 32 -211 97 -373 343 -142 216 -244
323 -368 387 -44 22 -98 46 -120 53 l-39 13 44 20 c309 141 447 218 558 312
40 34 118 137 147 195 15 30 51 121 80 201 73 205 137 294 253 353 106 54 233
52 344 -5 63 -32 155 -129 186 -196 22 -49 27 -72 27 -143 0 -71 -5 -94 -26
-140 -45 -95 -96 -131 -183 -131 -156 0 -255 137 -191 261 16 31 69 60 110 60
32 0 95 -58 95 -88 0 -35 -20 -36 -55 -2 -81 78 -178 -1 -129 -105 45 -96 199
-124 290 -53 91 72 83 250 -16 349 -137 137 -385 78 -481 -116 -29 -60 -31
-70 -27 -142 13 -222 220 -374 452 -332 146 26 252 114 304 249 29 76 34 109
33 204 -2 334 -268 582 -613 571 -115 -4 -214 -39 -299 -106 -43 -34 -49 -35
-49 -11 0 33 -57 137 -128 232 -102 138 -122 201 -95 293 20 67 44 100 89 122
94 45 208 -13 218 -112 3 -29 -11 -83 -22 -83 -4 0 -17 23 -29 50 -23 53 -49
70 -105 70 -38 0 -82 -26 -99 -58 -20 -36 -15 -111 9 -158 57 -111 170 -140
299 -78 101 49 159 161 151 294 -8 130 -66 219 -180 274 -142 68 -320 46 -430
-56 -82 -75 -138 -208 -138 -325 0 -54 -3 -64 -15 -59 -110 42 -306 52 -410
22 -309 -91 -498 -396 -424 -686 23 -90 66 -165 137 -235 267 -266 727 -144
793 210 17 92 6 166 -35 249 -75 149 -237 223 -397 182 -143 -37 -227 -132
-237 -268 -8 -120 43 -214 143 -264 101 -49 229 -28 284 46 65 89 61 193 -11
254 -50 43 -87 52 -127 31 -49 -25 -54 -93 -10 -134 20 -19 20 -20 2 -29 -14
-8 -26 -7 -43 1 -37 18 -50 52 -38 95 27 99 135 130 218 63 50 -40 73 -85 76
-147 3 -77 -14 -122 -67 -176 -56 -56 -105 -72 -204 -66 -149 10 -262 114
-278 255 -15 141 81 318 208 382 187 93 427 41 556 -121 188 -236 164 -589
-54 -799 -63 -61 -134 -104 -296 -181 -207 -99 -191 -96 -187 -45 4 55 -17
153 -43 205 -41 80 -148 163 -233 180 -68 13 -181 6 -230 -16 -141 -63 -217
-227 -174 -376 63 -217 362 -229 458 -18 31 69 13 135 -46 166 -52 27 -105 -3
-148 -83 -28 -51 -76 -36 -82 26 -7 67 37 113 114 121 87 8 158 -30 191 -102
43 -95 4 -204 -95 -265 -17 -11 -92 -36 -166 -56 -74 -20 -164 -51 -200 -68
-216 -103 -382 -314 -473 -602 -26 -82 -31 -115 -43 -245 -8 -98 -15 -110 -63
-110 -31 0 -44 6 -64 29 -54 64 -125 290 -142 451 -6 63 -7 255 -1 315 12 112
16 141 32 203 45 184 136 277 269 276 70 0 114 -20 166 -74 62 -66 73 -156 27
-215 -77 -98 -249 -59 -222 51 8 31 40 32 48 1 9 -39 45 -77 72 -77 114 0 148
118 62 215 -58 66 -167 82 -255 36 -114 -58 -159 -212 -98 -337 121 -247 529
-141 584 151 15 81 -3 157 -57 241 -22 33 -57 74 -80 92 -120 95 -308 123
-424 62 -45 -23 -50 -22 -54 17 -2 15 -8 58 -14 96 -21 140 -25 184 -24 307 1
155 20 216 90 280 117 108 290 135 409 66 79 -46 134 -139 143 -238 8 -102
-26 -176 -98 -213 -35 -18 -124 -22 -160 -7 -48 19 -51 26 -65 176 -7 76 -23
101 -75 114 -74 18 -127 0 -162 -57 -31 -50 -30 -181 1 -262 80 -208 338 -279
579 -161 74 36 147 112 187 197 52 109 62 222 30 333 -41 139 -109 228 -243
316 -53 36 -107 80 -119 98 -138 208 -155 480 -42 645 41 59 130 127 205 157
150 60 321 29 428 -77 125 -125 137 -314 28 -430 -108 -114 -309 -127 -379
-24 -60 88 -30 212 63 260 68 35 144 -17 144 -97 0 -37 -23 -50 -46 -25 -43
47 -85 43 -117 -11 -23 -39 -21 -63 9 -99 70 -84 225 -56 288 52 99 168 -30
370 -234 370 -129 0 -235 -74 -294 -204 -32 -71 -39 -121 -25 -189 25 -121
103 -219 217 -273 51 -24 80 -30 147 -33 129 -5 219 27 312 110 106 96 155
208 155 356 0 292 -199 507 -487 527 -145 10 -313 -39 -415 -120 l-44 -36 -22
63 c-68 203 -267 354 -477 361 -270 9 -473 -190 -463 -452 5 -108 43 -191 119
-258 142 -125 362 -117 490 18 98 103 101 273 6 368 -123 123 -318 115 -386
-15 -22 -41 -21 -132 2 -180 35 -73 123 -99 170 -51 34 33 31 60 -10 102 -38
39 -42 52 -23 71 30 30 123 -1 148 -49 17 -31 7 -101 -20 -137 -69 -93 -230
-79 -305 27 -28 39 -30 49 -29 124 0 64 5 91 21 123 64 122 226 180 374 134
173 -53 271 -179 271 -346 -1 -59 -7 -87 -37 -159 -47 -113 -64 -189 -60 -267
4 -74 6 -84 39 -184 28 -83 32 -130 13 -155 -7 -8 -68 -43 -137 -77 -172 -84
-242 -151 -299 -286 l-27 -65 -34 55 c-18 30 -79 102 -136 159 -56 57 -110
117 -119 135 -50 97 -4 243 92 291 77 38 174 5 208 -70 18 -40 16 -88 -5 -121
-12 -19 -82 -18 -148 4 -58 20 -87 15 -104 -17 -31 -59 3 -125 87 -170 53 -29
174 -30 224 -3 119 64 179 224 136 360 -24 76 -80 137 -162 178 -60 29 -75 33
-157 33 -78 0 -99 -4 -148 -27 -80 -37 -152 -107 -191 -187 -30 -61 -32 -72
-32 -171 0 -102 1 -109 37 -181 29 -59 58 -96 130 -167 50 -51 88 -92 85 -92
-4 0 -23 6 -41 14 -63 26 -181 48 -258 48 -48 -1 -124 -12 -206 -32 -153 -35
-192 -37 -274 -9 -108 36 -202 109 -244 190 -49 95 -55 239 -14 324 32 67 93
131 155 163 67 36 179 38 241 5 96 -51 153 -170 124 -259 -24 -72 -113 -143
-179 -144 -14 0 -44 9 -67 20 -89 43 -94 150 -9 194 34 18 55 11 55 -19 0 -37
10 -55 40 -70 96 -49 164 87 93 184 -46 63 -160 81 -247 40 -61 -28 -130 -106
-146 -164 -33 -118 27 -245 145 -308 58 -32 200 -31 268 0 134 62 206 169 212
313 3 98 -38 194 -119 276 -89 88 -187 126 -315 120 -149 -7 -278 -78 -366
-201 -144 -201 -112 -477 76 -666 70 -70 167 -126 262 -150 26 -6 47 -13 47
-15 0 -2 -18 -30 -39 -62 -37 -53 -81 -141 -95 -187 -3 -11 -8 -46 -11 -79 -3
-34 -13 -72 -25 -92 -45 -72 -169 -156 -252 -172 -18 -3 -67 -5 -108 -5 -194
2 -331 131 -331 313 0 170 165 297 316 242 111 -40 168 -196 97 -262 -48 -45
-96 -51 -147 -20 -53 33 -71 108 -30 124 18 6 45 -19 45 -42 0 -56 77 -84 115
-42 25 28 24 107 -1 151 -27 47 -94 80 -148 72 -56 -8 -76 -16 -115 -49 -116
-97 -82 -290 64 -367 29 -15 59 -21 111 -21 59 -1 80 4 129 29 184 94 210 338
53 493 -177 176 -497 111 -604 -122 -46 -101 -51 -210 -14 -324 90 -278 378
-414 659 -311 68 25 130 61 171 100 17 17 33 29 35 27 1 -1 15 -30 31 -63 54
-110 179 -210 314 -249 255 -73 522 71 588 316 14 51 8 163 -11 214 -36 98
-109 177 -202 221 -52 24 -72 28 -150 28 -79 0 -97 -4 -148 -28 -132 -65 -190
-191 -151 -326 33 -115 133 -201 234 -201 48 0 130 30 165 61 81 72 63 226
-31 265 -74 31 -140 -37 -98 -101 16 -24 16 -27 0 -44 -51 -57 -125 56 -86
130 15 26 82 59 122 59 49 -1 112 -33 144 -75 39 -51 45 -135 15 -197 -99
-205 -414 -188 -523 27 -56 109 -44 270 28 392 153 261 623 257 794 -8 63 -98
84 -193 84 -394 1 -150 -7 -302 -19 -376 -28 -178 -37 -410 -19 -519 26 -158
39 -213 78 -327 14 -40 23 -73 21 -73 -2 0 -23 8 -47 18 -72 31 -174 53 -318
67 -202 21 -260 38 -327 99 -113 102 -134 309 -41 406 62 65 194 93 266 56
111 -58 141 -238 48 -288 -36 -19 -91 -18 -124 3 -26 15 -32 25 -32 54 0 41
13 45 35 12 16 -26 55 -47 84 -47 10 0 28 12 42 26 19 20 24 37 24 74 0 103
-98 169 -220 146 -49 -9 -108 -65 -130 -122 -25 -66 -17 -165 19 -230 70 -127
243 -166 389 -86 254 138 168 551 -130 631 -56 15 -135 19 -195 10 -264 -42
-398 -364 -265 -639 22 -47 126 -159 166 -180 l23 -12 -28 -15 c-31 -16 -117
-79 -149 -110 -11 -10 -47 -37 -80 -59 -224 -150 -472 -158 -653 -22 -147 111
-194 198 -194 359 0 158 76 290 206 356 43 23 64 27 136 27 72 1 94 -3 140
-25 60 -29 112 -76 138 -123 23 -45 22 -160 -3 -211 -45 -92 -134 -145 -212
-123 -98 27 -138 171 -60 218 36 22 87 26 105 8 15 -15 -2 -38 -28 -38 -31 0
-70 -46 -70 -82 1 -111 164 -117 236 -8 57 86 49 186 -21 256 -100 99 -276 95
-377 -8 -83 -84 -107 -238 -56 -348 51 -111 159 -186 284 -197 242 -20 434
161 434 407 0 258 -209 451 -496 459 -241 6 -446 -138 -524 -369 -26 -77 -31
-224 -10 -309 63 -259 257 -465 499 -527 70 -17 186 -24 244 -13 20 3 39 3 42
-1 2 -4 -1 -24 -6 -45 -15 -52 -18 -172 -7 -242 40 -265 218 -473 449 -527 82
-20 236 -15 304 10 277 97 422 426 296 673 -94 183 -339 278 -513 199 -126
-58 -219 -208 -220 -354 -1 -145 116 -259 218 -211 69 33 78 83 29 159 -48 72
-38 143 25 188 44 31 125 38 170 15 146 -76 168 -298 39 -409 -103 -88 -292
-90 -417 -4 -96 66 -162 200 -162 328 0 130 52 243 163 353 148 146 376 212
568 163 105 -27 175 -72 285 -181 183 -182 342 -469 404 -727 17 -70 20 -141
7 -154 -2 -3 -26 0 -53 6 -73 17 -122 18 -195 4 -86 -16 -159 -54 -216 -110
-63 -63 -86 -121 -86 -214 0 -137 56 -231 170 -287 182 -89 396 23 396 207 0
153 -168 259 -255 160 -26 -28 -33 -52 -28 -90 1 -8 20 -34 43 -58 l41 -42
-21 -21 c-38 -39 -116 -21 -148 34 -28 47 -26 132 5 181 53 86 211 108 307 43
69 -47 114 -158 116 -287 1 -99 -7 -158 -38 -266 -111 -384 -440 -849 -945
-1339 -111 -107 -162 -151 -303 -264 l-38 -30 -97 45 c-274 127 -542 290 -787
480 -122 94 -132 103 -244 202 -527 468 -947 1110 -1175 1795 -47 142 -126
436 -140 522 -2 17 -14 86 -25 155 -11 69 -22 148 -25 175 -3 28 -9 84 -13
125 -17 155 -9 686 12 850 2 19 6 51 9 70 166 1288 937 2445 2059 3093 175
101 466 239 602 285 17 6 55 20 85 31 201 77 580 168 815 196 28 4 60 8 71 10
12 2 61 6 110 10 49 4 91 9 93 11 6 6 622 -3 646 -9z"/>
</g>
</svg>
